<svg id="bb698b1d-9ea6-4ca6-94a2-aa1c074be9a3" data-name="Capa 1" xmlns="http://www.w3.org/2000/svg"
     viewBox="0 0 477.85 477.87">
    <title>logout</title>
    <path fill="#ffc000"
          d="M443.73,17.07H221.87a51.2,51.2,0,0,0-51.2,51.2v102.4a17.07,17.07,0,0,0,34.13,0V68.27A17.07,17.07,0,0,1,221.87,51.2H443.73A17.07,17.07,0,0,1,460.8,68.27V443.73a17.07,17.07,0,0,1-17.07,17.07H221.87a17.07,17.07,0,0,1-17.07-17.07V341.33a17.07,17.07,0,0,0-34.13,0v102.4a51.2,51.2,0,0,0,51.2,51.2H443.73a51.2,51.2,0,0,0,51.2-51.2V68.27A51.2,51.2,0,0,0,443.73,17.07Z"
          transform="translate(-17.09 -17.07)"/>
    <path fill="#ffc000"
          d="M18.38,249.48a17.12,17.12,0,0,0,0,13,16.92,16.92,0,0,0,3.7,5.56l85.34,85.34A17.07,17.07,0,1,0,132,329.7l-.42-.42L75.33,273.07H358.4a17.07,17.07,0,1,0,0-34.14H75.33l56.2-56.2A17.07,17.07,0,0,0,107.4,158.6L22.07,243.93A17,17,0,0,0,18.38,249.48Z"
          transform="translate(-17.09 -17.07)"/>
</svg>