<?xml version="1.0" encoding="utf-8"?>
<!-- Generator: Adobe Illustrator 24.0.1, SVG Export Plug-In . SVG Version: 6.00 Build 0)  -->
<svg version="1.1" id="Layer_1" xmlns="http://www.w3.org/2000/svg" xmlns:xlink="http://www.w3.org/1999/xlink" x="0px" y="0px"
	 viewBox="0 0 250 250" style="enable-background:new 0 0 250 250;" xml:space="preserve">
<style type="text/css">
	.st0{fill:#FFFFFF;}
	.st1{fill:#FFC200;}
</style>
<g>
	<g>
		<g>
			<path class="st0" d="M20.4,61.58h10.92v24.4c0,4.93,2.62,8.49,8.42,8.49c5.74,0,8.36-3.56,8.36-8.49v-24.4h10.92v24.71
				c0,10.36-5.93,17.66-19.28,17.66S20.4,96.59,20.4,86.36V61.58z"/>
			<path class="st0" d="M77.25,78.06v25.15H66.52V61.58h11.05l16.85,23.96V61.58h10.8v41.62H94.85L77.25,78.06z"/>
			<path class="st0" d="M112.7,61.58h10.73v41.62H112.7V61.58z"/>
			<path class="st1" d="M130.92,61.58h98.72v41.62h-98.72V61.58z"/>
			<path class="st0" d="M29.89,123.19H20.4v-9.36h29.56v9.36h-9.34v32.26H29.89V123.19z"/>
			<path class="st0" d="M75.94,113.14c12.73,0,22.22,8.86,22.22,21.53c0,12.67-9.49,21.53-22.22,21.53s-22.28-8.86-22.28-21.53
				C53.66,122,63.21,113.14,75.94,113.14z M75.94,122.63c-6.93,0-11.36,5.24-11.36,12.04c0,6.74,4.43,12.04,11.36,12.04
				c6.86,0,11.3-5.3,11.3-12.04C87.24,127.87,82.81,122.63,75.94,122.63z"/>
			<path class="st0" d="M103.59,113.83h10.92v24.4c0,4.93,2.62,8.49,8.42,8.49c5.74,0,8.36-3.56,8.36-8.49v-24.4h10.92v24.71
				c0,10.36-5.93,17.66-19.28,17.66s-19.35-7.36-19.35-17.6V113.83z"/>
			<path class="st0" d="M165.93,141.35h-5.49v14.1H149.7v-41.62h20.84c9.24,0,14.48,6.12,14.48,13.85c0,7.24-4.43,11.11-8.3,12.48
				l8.49,15.29h-12.29L165.93,141.35z M168.93,122.88h-8.49v9.36h8.49c2.81,0,5.18-1.81,5.18-4.68
				C174.11,124.69,171.73,122.88,168.93,122.88z"/>
			<path class="st0" d="M201.69,130.3v25.15h-10.73v-41.62H202l16.85,23.96v-23.96h10.8v41.62h-10.36L201.69,130.3z"/>
		</g>
	</g>
	<g>
		<path class="st0" d="M21.85,177.28v-7.6h3.14v7.49c0,2.58,1.12,3.65,3.03,3.65c1.92,0,3.03-1.07,3.03-3.65v-7.49h3.1v7.6
			c0,4-2.29,6.21-6.15,6.21S21.85,181.28,21.85,177.28z"/>
		<path class="st0" d="M47.71,177.28v5.97h-3.03v-5.51c0-1.69-0.78-2.46-2.11-2.46c-1.45,0-2.5,0.89-2.5,2.81v5.16h-3.03v-10.43
			h2.89v1.22c0.81-0.89,2.04-1.38,3.45-1.38C45.84,172.67,47.71,174.1,47.71,177.28z"/>
		<path class="st0" d="M50.08,169.68c0-0.95,0.76-1.69,1.88-1.69s1.88,0.7,1.88,1.63c0,1.01-0.76,1.75-1.88,1.75
			S50.08,170.63,50.08,169.68z M50.44,172.82h3.03v10.43h-3.03V172.82z"/>
		<path class="st0" d="M63.01,182.75c-0.62,0.45-1.53,0.66-2.46,0.66c-2.46,0-3.9-1.26-3.9-3.74v-4.29h-1.61v-2.33h1.61v-2.54h3.03
			v2.54h2.6v2.33h-2.6v4.25c0,0.89,0.48,1.38,1.3,1.38c0.45,0,0.89-0.14,1.22-0.39L63.01,182.75z"/>
		<path class="st0" d="M74.56,178.89h-7.89c0.29,1.3,1.4,2.09,2.99,2.09c1.11,0,1.9-0.33,2.62-1.01l1.61,1.75
			c-0.97,1.11-2.42,1.69-4.31,1.69c-3.61,0-5.95-2.27-5.95-5.37c0-3.12,2.39-5.37,5.57-5.37c3.06,0,5.43,2.06,5.43,5.41
			C74.61,178.31,74.58,178.64,74.56,178.89z M66.62,177.13h5.14c-0.21-1.32-1.2-2.17-2.56-2.17
			C67.83,174.96,66.84,175.79,66.62,177.13z"/>
		<path class="st0" d="M87.26,168.87v14.39h-2.89v-1.2c-0.76,0.91-1.86,1.36-3.26,1.36c-2.95,0-5.22-2.09-5.22-5.37
			s2.27-5.37,5.22-5.37c1.28,0,2.37,0.41,3.12,1.26v-5.06H87.26z M84.3,178.04c0-1.8-1.16-2.89-2.66-2.89
			c-1.51,0-2.68,1.09-2.68,2.89s1.16,2.89,2.68,2.89C83.13,180.93,84.3,179.84,84.3,178.04z"/>
		<path class="st0" d="M98.58,172.24h-4.34v-2.56h11.83v2.56h-4.34v11.02h-3.14V172.24z"/>
		<path class="st0" d="M105.7,178.04c0-3.14,2.42-5.37,5.74-5.37s5.72,2.23,5.72,5.37s-2.4,5.37-5.72,5.37
			S105.7,181.18,105.7,178.04z M114.09,178.04c0-1.8-1.14-2.89-2.66-2.89s-2.68,1.09-2.68,2.89s1.16,2.89,2.68,2.89
			S114.09,179.84,114.09,178.04z"/>
		<path class="st0" d="M129.69,172.82v10.43h-2.87v-1.24c-0.8,0.91-1.96,1.4-3.24,1.4c-2.62,0-4.46-1.47-4.46-4.69v-5.9h3.03v5.45
			c0,1.75,0.78,2.52,2.11,2.52c1.4,0,2.4-0.89,2.4-2.81v-5.16H129.69z"/>
		<path class="st0" d="M138.99,172.67v2.79c-0.25-0.02-0.45-0.04-0.68-0.04c-1.67,0-2.77,0.91-2.77,2.91v4.93h-3.03v-10.43h2.89
			v1.38C136.13,173.19,137.38,172.67,138.99,172.67z"/>
		<path class="st0" d="M151.46,177.28v5.97h-3.03v-5.51c0-1.69-0.78-2.46-2.11-2.46c-1.46,0-2.5,0.89-2.5,2.81v5.16h-3.03v-10.43
			h2.89v1.22c0.81-0.89,2.04-1.38,3.45-1.38C149.6,172.67,151.46,174.1,151.46,177.28z"/>
		<path class="st0" d="M163.43,177.3v5.95h-2.83v-1.3c-0.56,0.95-1.65,1.46-3.18,1.46c-2.44,0-3.9-1.36-3.9-3.16
			c0-1.84,1.3-3.12,4.48-3.12h2.4c0-1.3-0.78-2.06-2.4-2.06c-1.11,0-2.25,0.37-3.01,0.97l-1.09-2.11c1.14-0.81,2.83-1.26,4.5-1.26
			C161.59,172.67,163.43,174.14,163.43,177.3z M160.4,179.96v-1.07h-2.08c-1.42,0-1.86,0.52-1.86,1.22c0,0.76,0.64,1.26,1.71,1.26
			C159.18,181.38,160.06,180.91,160.4,179.96z"/>
		<path class="st0" d="M183.8,177.28v5.97h-3.03v-5.51c0-1.69-0.76-2.46-1.98-2.46c-1.36,0-2.31,0.87-2.31,2.73v5.24h-3.03v-5.51
			c0-1.69-0.72-2.46-1.98-2.46c-1.34,0-2.29,0.87-2.29,2.73v5.24h-3.03v-10.43h2.89v1.2c0.78-0.89,1.94-1.36,3.28-1.36
			c1.46,0,2.7,0.56,3.43,1.71c0.83-1.07,2.19-1.71,3.76-1.71C182.01,172.67,183.8,174.1,183.8,177.28z"/>
		<path class="st0" d="M196.8,178.89h-7.89c0.29,1.3,1.4,2.09,2.99,2.09c1.11,0,1.9-0.33,2.62-1.01l1.61,1.75
			c-0.97,1.11-2.42,1.69-4.31,1.69c-3.61,0-5.95-2.27-5.95-5.37c0-3.12,2.38-5.37,5.57-5.37c3.06,0,5.43,2.06,5.43,5.41
			C196.86,178.31,196.82,178.64,196.8,178.89z M188.87,177.13H194c-0.21-1.32-1.2-2.17-2.56-2.17
			C190.07,174.96,189.08,175.79,188.87,177.13z"/>
		<path class="st0" d="M209.54,177.28v5.97h-3.03v-5.51c0-1.69-0.78-2.46-2.11-2.46c-1.46,0-2.5,0.89-2.5,2.81v5.16h-3.03v-10.43
			h2.89v1.22c0.81-0.89,2.04-1.38,3.45-1.38C207.68,172.67,209.54,174.1,209.54,177.28z"/>
		<path class="st0" d="M219.01,182.75c-0.62,0.45-1.53,0.66-2.46,0.66c-2.46,0-3.9-1.26-3.9-3.74v-4.29h-1.61v-2.33h1.61v-2.54h3.03
			v2.54h2.6v2.33h-2.6v4.25c0,0.89,0.49,1.38,1.3,1.38c0.45,0,0.89-0.14,1.22-0.39L219.01,182.75z"/>
		<path class="st0" d="M219.71,182.29l1.01-2.17c0.93,0.6,2.35,1.01,3.63,1.01c1.4,0,1.92-0.37,1.92-0.95c0-1.71-6.3,0.04-6.3-4.13
			c0-1.98,1.78-3.37,4.83-3.37c1.44,0,3.03,0.33,4.01,0.91l-1.01,2.15c-1.03-0.58-2.06-0.78-3.01-0.78c-1.36,0-1.94,0.43-1.94,0.97
			c0,1.78,6.3,0.06,6.3,4.17c0,1.94-1.8,3.32-4.93,3.32C222.47,183.41,220.68,182.93,219.71,182.29z"/>
	</g>
</g>
</svg>
