<svg id="aeefc598-3f1f-4a9e-ae7c-7622c3730353" data-name="Layer 1" xmlns="http://www.w3.org/2000/svg" xmlns:xlink="http://www.w3.org/1999/xlink" viewBox="0 0 73.54 47.04"><defs><linearGradient id="b0edbf0b-28bc-458d-84a3-f87bea307e7a" x1="36.77" y1="-6.79" x2="36.77" y2="55.72" gradientUnits="userSpaceOnUse"><stop offset="0" stop-color="#b400ff" stop-opacity="0"/><stop offset="1" stop-color="#b400ff"/></linearGradient></defs><title>cards</title><rect x="0.3" y="0.25" width="72.95" height="46.54" rx="5.07" style="stroke:#b400ff;stroke-linecap:round;stroke-linejoin:round;stroke-width:0.5px;fill:url(#b0edbf0b-28bc-458d-84a3-f87bea307e7a)"/><path d="M17,38V52.47a5.07,5.07,0,0,0,5.07,5.07H84.9A5.07,5.07,0,0,0,90,52.47V38ZM46.69,49.13H25.21V45H46.69Zm22.47,2.25a4.33,4.33,0,1,1,4.32-4.33A4.33,4.33,0,0,1,69.16,51.38Zm10.81,0a4.33,4.33,0,1,1,4.33-4.33A4.33,4.33,0,0,1,80,51.38Z" transform="translate(-16.73 -10.75)" style="stroke:#b400ff;stroke-linecap:round;stroke-linejoin:round;stroke-width:0.5px;fill:url(#b0edbf0b-28bc-458d-84a3-f87bea307e7a)"/><rect x="0.25" y="11" width="73.04" height="8.99" style="stroke:#b400ff;stroke-linecap:round;stroke-linejoin:round;stroke-width:0.5px;fill:url(#b0edbf0b-28bc-458d-84a3-f87bea307e7a)"/></svg>