<svg id="bbb07ad8-4bb3-418c-90a6-52c9801b2a32" data-name="Layer 1" xmlns="http://www.w3.org/2000/svg"
     xmlns:xlink="http://www.w3.org/1999/xlink" viewBox="0 0 95.25 29.63">
    <defs>
        <linearGradient id="b2e5a468-48ab-4ed2-a5ac-93d4e010b5d2" x1="39.72" y1="-2.83" x2="39.72" y2="27"
                        gradientUnits="userSpaceOnUse">
            <stop offset="0" stop-color="#e9bc35" stop-opacity="0"/>
            <stop offset="1" stop-color="#e9bc35"/>
        </linearGradient>
        <linearGradient id="b87db9e3-5fd7-4600-bbff-39b6afc1b379" x1="63.51" y1="17.36" x2="63.51" y2="47.19"
                        xlink:href="#b2e5a468-48ab-4ed2-a5ac-93d4e010b5d2"/>
        <linearGradient id="bc20c2c3-98dd-4d64-9ec4-e6475a532a6b" x1="87.19" y1="17.36" x2="87.19" y2="47.19"
                        xlink:href="#b2e5a468-48ab-4ed2-a5ac-93d4e010b5d2"/>
        <linearGradient id="bc80622d-64d4-4f52-ae31-c9453e118ad4" x1="27.6" y1="17.36" x2="27.6" y2="47.19"
                        xlink:href="#b2e5a468-48ab-4ed2-a5ac-93d4e010b5d2"/>
    </defs>
    <title>visa</title>
    <polygon points="33.47 28.96 38.27 0.74 45.97 0.74 41.15 28.96 33.47 28.96 33.47 28.96"
             style="stroke:#e9bc35;stroke-linecap:round;stroke-linejoin:round;stroke-width:0.5px;fill:url(#b2e5a468-48ab-4ed2-a5ac-93d4e010b5d2)"/>
    <path d="M75.05,21.62a19.89,19.89,0,0,0-6.89-1.18c-7.6,0-13,3.82-13,9.31,0,4,3.82,6.32,6.74,7.67s4,2.26,4,3.5c0,1.89-2.39,2.75-4.6,2.75A16.18,16.18,0,0,1,54,42.19l-1-.45L52,48.06a24.22,24.22,0,0,0,8.57,1.5c8.09,0,13.33-3.78,13.39-9.64,0-3.21-2-5.65-6.45-7.66-2.69-1.31-4.34-2.18-4.32-3.5s1.39-2.43,4.4-2.43a14.21,14.21,0,0,1,5.76,1.08l.69.33,1-6.12Z"
          transform="translate(-6 -20.19)"
          style="stroke:#e9bc35;stroke-linecap:round;stroke-linejoin:round;stroke-width:0.5px;fill:url(#b87db9e3-5fd7-4600-bbff-39b6afc1b379)"/>
    <path d="M94.77,21H88.83c-1.84,0-3.22.51-4,2.34L73.38,49.15h8.08s1.32-3.47,1.62-4.24l9.85,0c.22,1,.93,4.22.93,4.22H101L94.77,21ZM85.29,39.14c.64-1.62,3.06-7.89,3.06-7.89s.64-1.63,1-2.69L89.89,31l1.78,8.15Z"
          transform="translate(-6 -20.19)"
          style="stroke:#e9bc35;stroke-linecap:round;stroke-linejoin:round;stroke-width:0.5px;fill:url(#bc20c2c3-98dd-4d64-9ec4-e6475a532a6b)"/>
    <path d="M33,21,25.49,40.19l-.81-3.91c-1.4-4.51-5.77-9.39-10.65-11.84l6.89,24.68h8.13L41.16,21Z"
          transform="translate(-6 -20.19)"
          style="stroke:#e9bc35;stroke-linecap:round;stroke-linejoin:round;stroke-width:0.5px;fill:url(#bc80622d-64d4-4f52-ae31-c9453e118ad4)"/>
    <path d="M18.5,20.93H6.09L6,21.52c9.65,2.33,16,8,18.68,14.76L22,23.31c-.47-1.78-1.82-2.32-3.49-2.38Z"
          transform="translate(-6 -20.19)" style="fill:#e9bc35"/>
</svg>