<svg id="e3aaba94-dc6e-4979-82a8-7e63038a36b7" data-name="Layer 1" xmlns="http://www.w3.org/2000/svg"
     viewBox="0 0 406 403.98">
    <title>edit</title>
    <rect x="728.48" y="1333.34" width="206.23" height="66.51" transform="translate(-1299.26 -227.38) rotate(-45)"
          style="fill:none;stroke:#ffc000;stroke-miterlimit:10;stroke-width:5px"/>
    <path fill="#ffc000" d="M952.73,1292.49a25,25,0,0,0,0-35.32L941,1245.45a25,25,0,0,0-35.3,0L895.11,1256l47,47Z"
          transform="translate(-576.5 -1215.67)" style="fill:none;stroke:#ffc000;stroke-miterlimit:10;stroke-width:5px"/>
    <polygon points="186.84 256.76 149.27 219.18 134.88 271.15 186.84 256.76"
             style="fill:none;stroke:#ffc000;stroke-miterlimit:10;stroke-width:5px"/>
    <path fill="#ffc000" d="M628.93,1617.15H909.16a50,50,0,0,0,49.93-49.93v-88.68a10,10,0,1,0-20,0v88.67a30,30,0,0,1-30,30H628.93a30,30,0,0,1-30-30V1307a30,30,0,0,1,30-30h88.68a10,10,0,0,0,0-20H628.93A50,50,0,0,0,579,1307v260.26A50,50,0,0,0,628.93,1617.15Z"
          transform="translate(-576.5 -1215.67)" style="stroke:#ffc000;stroke-miterlimit:10;stroke-width:5px"/>
    <path fill="#ffc000" d="M710.84,1413.9l-23.43,84.59a10,10,0,0,0,12.29,12.29l84.59-23.43a10,10,0,0,0,4.4-2.57l178.17-178.17a44.86,44.86,0,0,0,13.14-31.7v-.17a44.84,44.84,0,0,0-13.14-31.69l-11.72-11.72a45,45,0,0,0-63.56,0L713.41,1409.5A10,10,0,0,0,710.84,1413.9Zm194.87-168.45a25,25,0,0,1,35.3,0l11.72,11.72a25,25,0,0,1,0,35.32l-10.59,10.59-47-47ZM881,1270.17l47,47L782.19,1463l-47-47ZM763.34,1472.42l-52,14.4,14.39-52Z"
          transform="translate(-576.5 -1215.67)" style="stroke:#ffc000;stroke-miterlimit:10;stroke-width:5px"/>
</svg>