<svg id="f2cc8dcd-4aa6-4bd7-bc0e-d5013619b044" data-name="Layer 1" xmlns="http://www.w3.org/2000/svg"
     viewBox="0 0 238 211.18">
    <title>logo</title>
    <path d="M31,170.77v-.48a4.92,4.92,0,0,0,.2-2.38,7.53,7.53,0,0,1-.07-.83c-.1-.52.26-1,.11-1.52a1.19,1.19,0,0,1,.07-1c.08-.15.14-.35.05-.46-.4-.5-.14-1.08-.22-1.61a6.45,6.45,0,0,1,.29-.59c.09-.17.3-.25.35,0,.08.37.3.24.46.16s-.22-.29,0-.49c.41.11.68-.3,1.06-.36.13,0,.26.23.39,0s-.23-.23-.28-.39a1.12,1.12,0,0,1,1.31-.3,1.51,1.51,0,0,0,.89,0c.18,0,.37-.11.53-.06,1,.3,1.93-.16,2.93,0a9.69,9.69,0,0,0,1.84-.08c.17,0,.39,0,.32-.21-.23-.64.24-1.2.12-1.82a29.71,29.71,0,0,1-.19-4.62c-.1-2.52-.08-5.05,0-7.57a7.36,7.36,0,0,0,.11-1.3,13.69,13.69,0,0,0-.25-2.55c-.06-.19.07-.37.13-.56.25-.74,0-1.59.53-2.27,0,0-.08-.15-.08-.22,0-.48-.4-.83-.39-1.29a34.28,34.28,0,0,0-.12-4.18c-.08-.87.27-1.71.11-2.57a15,15,0,0,1-.12-1.89c0-.86.44-1.63.24-2.48s.37-1.4.23-2.15c0-.17.27-.41.23-.58a12.18,12.18,0,0,0-.35-2.41c-.07-.17-.13-.36,0-.51a.62.62,0,0,0,0-.73,2.45,2.45,0,0,1-.18-1.11,7.6,7.6,0,0,1,0-2.13c.19-.67-.25-1.34,0-2a3.9,3.9,0,0,0,.09-1.13c0-.87,0-1.75.08-2.62a25.89,25.89,0,0,1,.05-3.17c.13-.88-.12-1.89-.05-2.85,0-.51-.28-1-.1-1.53a2,2,0,0,0,0-1.59.78.78,0,0,1,0-.58c.21-.68,0-.87-.69-.72-.47.09-1,.31-1.42.11a5,5,0,0,0-2.74-.07,12.79,12.79,0,0,1-2.63-.19c-.48-.05-.94-.36-1.44-.05a.23.23,0,0,1-.32,0,.3.3,0,0,1,0-.28.64.64,0,0,0,.3-.71c0-.11.05-.23,0-.32s-.2,0-.27.1-.24.08-.31-.06c-.15-.34-.48-.4-.78-.5V96c.17-.3.43-.61.31-1a7.31,7.31,0,0,1-.11-2.42,23.73,23.73,0,0,0-.07-2.92.48.48,0,0,1,.08-.49l.82,1c.81-1,.81-1,0-1.45-.16.15-.12.42-.32.55-.53-.66-.52-.79.15-1.11.16-.07.18-.17.18-.32s0-.57.34-.49.31.34.21.64a1.11,1.11,0,0,0,0,.87c.53-1.53.53-1.53,1.26-1.17,0-.19,0-.37,0-.54s.14-.22.16-.18c.12.42.64.19.8.5.06.12.07.24.21.17.43-.23.86,0,1.29,0,.19,0,.37.07.42-.25s1.35-.46,1.52-.3a5.24,5.24,0,0,0,1.37.79,1.1,1.1,0,0,0,1.68-.84,5.28,5.28,0,0,0-.16-.94c-.14-1.47.1-2.94,0-4.42,0-.47.25-.89.18-1.35-.17-1.09,0-2.2-.18-3.29,0-.12.05-.23.06-.34.07-.52.44-1.12-.27-1.51A.23.23,0,0,1,41,75c.48-.44.15-1,.12-1.43.18-.13.33.19.44,0a.65.65,0,0,0,0-.57c-.51-1.1-.24-2.29-.4-3.43,0-.09.07-.19.08-.29a10.38,10.38,0,0,0,.12-1.92,1.93,1.93,0,0,1,.16-1.14,19.69,19.69,0,0,1,1.53-2,2.15,2.15,0,0,1,2.23-1.13c.21,0,.3-.15.44-.24l.32-.18c.22,0,.45.11.65-.06a.44.44,0,0,0,.31-.18,2.4,2.4,0,0,0,.66,0,7.44,7.44,0,0,1,3.11-.28l.12,0,.35,0c.07.12.16.1.26.06a.85.85,0,0,0,.47-.1c.21,0,.4.13.62.06a1.52,1.52,0,0,0,.82,0l.85-.1h.47l.2-.06h.7l.19,0,2.58-.06a.35.35,0,0,0,.32.12.38.38,0,0,0,.39.06,2.84,2.84,0,0,1,1.63-.13h.48a.48.48,0,0,0,.37,0h.59l.24,0a.78.78,0,0,0,.6.07,1.68,1.68,0,0,0,.74,0h1.9l.26,0,.23,0a.24.24,0,0,0,.25.08l.23.09c.43.14.82.58,1.33.24a1.34,1.34,0,0,1,1-.1A7.94,7.94,0,0,0,72,62.5a3.14,3.14,0,0,1,1.77-.07,2.7,2.7,0,0,0,.84.11c.67,0,1.4-.39,2,.22.06.06.14,0,.21,0A4.5,4.5,0,0,1,79,62.34c1.12,0,2.2.32,3.33.19,1.74-.21,3.5.28,5.24-.1a.55.55,0,0,1,.18,0,17,17,0,0,0,2.94.17c.63,0,1.31-.34,1.82-.12,1.08.45,2.13,0,3.19.07a27.11,27.11,0,0,1,3.6,0,4.22,4.22,0,0,0,2.17-.11.81.81,0,0,1,.53,0c1.08.38,2.19,0,3.28.11.47.07.93-.34,1.4-.1s1.3-.08,1.84.4c0,0,.11,0,.16-.06a3.68,3.68,0,0,1,2-.21c1,.14,2-.34,3,.22l.06,0c1-.09,1,0,.86.94-.22-.09-.34-.34-.61-.38a1,1,0,0,1,0,.24c-.16.53-.14.57.47.56.31,0,.61-.08.93-.11.14,0,.36.14.42-.05s-.23-.2-.35-.29-.61-.32-.53-.58a.8.8,0,0,1,.84-.55h.12a6.28,6.28,0,0,1,2.36.2.54.54,0,0,0,.28,0,9.63,9.63,0,0,1,1.93-.25,18.37,18.37,0,0,0,4.06-.08,12.55,12.55,0,0,1,1.61.07c1,0,2,0,3,0a11.66,11.66,0,0,1,2.21,0c.44.06.93.29,1.31.17a10,10,0,0,1,2.61-.16.69.69,0,0,1,.63.55c.05.25-.26.42-.5.53a3.94,3.94,0,0,1-.51.16,5.87,5.87,0,0,0,1.84.38c-.2-.26.76,0,.19-.44-.1-.08-.09-.28-.13-.42-.22.08-.34.35-.67.35.18-.36-.21-1.12.46-1s1.26-.23,2-.13c1.18.17,2.43-.15,3.63.27.08,0,.13,0,.2-.07a5.11,5.11,0,0,1,2.24-.32,34.76,34.76,0,0,0,3.53.1,5.31,5.31,0,0,1,1.64,0,3.6,3.6,0,0,0,1.23.07c.35,0,.65-.21,1-.2,1.53,0,3.05.06,4.57.17.31,0,.69.2.91.09a3.86,3.86,0,0,1,2.1-.1c1.6.09,3.2-.25,4.79,0a.65.65,0,0,0,.24,0,20.06,20.06,0,0,1,4.71,0,1.75,1.75,0,0,0,.46,0c.23,0,.59-.61.71.12,0,.1.1,0,.14-.08s.23,0,.35.06a4,4,0,0,0,1.87.87.29.29,0,0,0,.31,0h.16a.52.52,0,0,0,.44-.16,2.11,2.11,0,0,0,.54-.22,5.45,5.45,0,0,1,2.65-.71c.54,0,1,.36,1.51.3a27.92,27.92,0,0,1,3.88-.05c.78,0,.77,0,.61.78-.07.35-.15.74.37,1-.55-.55.3-1,0-1.55-.08-.16.18-.32.46-.29a9.91,9.91,0,0,0,1.44,0c1.23,0,2.47-.19,3.7-.11a5.64,5.64,0,0,0,3-.22.65.65,0,0,1,.68.06,1,1,0,0,0,1,.05,1,1,0,0,1,.4-.11,13,13,0,0,0,2.25.1c1.15-.07,2.3-.12,3.45-.16.6,0,1.19.1,1.78.09,2.14,0,4.28,0,6.43-.05,2.51-.1,5-.07,7.56.05a11.23,11.23,0,0,0,1.65.06,7.37,7.37,0,0,1,2.37-.14c.85.24,1.79.06,2.58.55.43-.1.91-.06,1.23-.45,1.58.07,3.15-.06,4.73-.1a17.11,17.11,0,0,0,2.68.05c.42-.07.84,0,1.25-.08.89-.09,1.72.42,2.6.25a5.51,5.51,0,0,1,2.26.3,8.13,8.13,0,0,0,3-.16c.3,0,.57-.06.76.12.55.5,1.19.34,1.79.29a1.71,1.71,0,0,1,1.63.78s.14.08.2.07a1.79,1.79,0,0,0,.52-.12c1-.49,2.14-.17,3.19-.37.12,0,.26.09.4.1a15.65,15.65,0,0,0,2.05.11,1.62,1.62,0,0,1,.79.07,12.3,12.3,0,0,1,2.84,2.17c.32.29.68.82.58,1.21-.19.71.28,1.2.4,1.79a13.73,13.73,0,0,1,.52,3.87,10.74,10.74,0,0,0-.15,1.12c0,1.84.21,3.67.16,5.52,0,.17,0,.47,0,.51.68.35.19.84.2,1.27a1.88,1.88,0,0,0,0,.41,4.55,4.55,0,0,1,.13,2.17,11.41,11.41,0,0,0,0,1.76,7.26,7.26,0,0,0,.11,1.81.52.52,0,0,0,.29.4,2.45,2.45,0,0,0,2.72,0,2,2,0,0,1,1.7-.41c.26.06.66,0,.59.46a.19.19,0,0,0,.12.09,3,3,0,0,1,1.63,0,.23.23,0,0,0,.06-.09c.11-.43.74-.07.84-.56,0,0,.19,0,.21.18s-.11.36.07.5c.62-.31.91-.15,1,.58a1.13,1.13,0,0,0,.23.72,2.37,2.37,0,0,0-.08-1.14.4.4,0,0,1,.3-.5c.23-.05.26.2.3.37s0,.36.17.48c.69.4.7.48.16,1.07-.36-.56-.37-.57-.67-.33s-.33.55.34,1.27l.81-1a.22.22,0,0,1,.13.29,9.49,9.49,0,0,0-.06,3.1,1.46,1.46,0,0,1,0,.59c-.21.7.22,1.42-.11,2.11-.05.08.07.25.13.37.28.56,0,1.18.15,1.7s-.32.93-.12,1.46c.06.15-.63.26-.78.68-.05.13-.13-.17-.24-.23s-.15,0-.21.06-.13.19,0,.26c.27.19,0,.33,0,.49,0-.05-.08-.06-.11,0s0,0,0,0l.09-.06a.41.41,0,0,1,.38.5c0,.15-.16.16-.29.11-1-.37-1.89.35-2.88.23-.33,0-.69.06-1.06,0a7.66,7.66,0,0,0-2.28-.12,3.92,3.92,0,0,1-2,.08,3.65,3.65,0,0,0-1.19,0c-.35,0-.48.21-.44.5a20,20,0,0,1,0,2.45c0,.53.29,1.18-.24,1.68-.09.08.08.2.13.31.16.35.68.53.53,1l-.07.36a1.09,1.09,0,0,0,0,1c-.11.18-.24.12-.32,0s.15-.27,0-.38c-.17.67.27,1.4-.36,2,.75-.11.93-.3.81-1-.08-.49.08-.41.36-.24l0,1.44a3.16,3.16,0,0,0,0,1v.48a.73.73,0,0,0-.15.47c-.28.57-.61,1.12-.15,1.77.14.18,0,.46,0,.69a7.15,7.15,0,0,0,0,2.84,3.45,3.45,0,0,1,0,2.31c-.08.16,0,.32,0,.47,0,.69.39,1.44-.22,2.07-.07.07,0,.14,0,.21a3.65,3.65,0,0,1,.4,2.13c0,1.28-.3,2.54-.17,3.83.17,1.59-.25,3.18,0,4.77a.49.49,0,0,1,0,.24,10.8,10.8,0,0,0-.12,2.6c0,1.23-.08,2.46,0,3.69,0,.58,0,1.16,0,1.74a13.21,13.21,0,0,1,0,3.44,2.84,2.84,0,0,0-.11,1.16,4.27,4.27,0,0,1,.12,2.16,4.62,4.62,0,0,0,.08,1.77c.11.74-.38,1.6.44,2.21,0,0,0,.15,0,.15-.59,0-.35.54-.41.79-.14.65-.45,1.31.15,2a1.36,1.36,0,0,1,.16,1.34,2.1,2.1,0,0,0-.32,2,.42.42,0,0,1-.07.39c-.43.52,0,1,.09,1.48a.47.47,0,0,0,.51.34,8.11,8.11,0,0,1,2.94.1,5.13,5.13,0,0,0,1.75-.12,8.08,8.08,0,0,1,3,.24,1.3,1.3,0,0,0,1,0c.12-.08.26-.13.36,0a.25.25,0,0,1-.07.37c-.36.14-.05.53-.28.72-.08.06,0,.19.11.24s.19,0,.23-.07.25-.25.27-.06c0,.46.63.35.69,1a7.18,7.18,0,0,1,0,2.53,17.1,17.1,0,0,0-.1,2.57c-.06.33.09.75,0,1.12a6.58,6.58,0,0,0,0,2c0,.31.21.67,0,1l-.84-1a3.44,3.44,0,0,0-.5.61c-.23.41,0,.66.36.81s.2-.28.34-.38l.15-.11c.28.32.59.72.14,1s-.53.25-.5.64c0,.17-.15.34-.31.28s-.35-.16-.31-.39.12-.28.09-.4.25-.66,0-.68-.17.43-.24.67a1.82,1.82,0,0,1-.32.56c-.1.14-.25.22-.41.08-.37-.31-.43-.12-.39.24,0,.11,0,.26-.11.3s-.16-.16-.21-.18c-.32-.13-.73-.51-.86-.46a3.43,3.43,0,0,1-1.24,0c-.21,0-.44-.14-.46.28,0,.26-1.33.39-1.57.23a4.53,4.53,0,0,0-1.89-.87c-.32,0-.89-.13-1,.34-.14,1.25-.45,2.52.14,3.74a.54.54,0,0,1-.05.62.84.84,0,0,0-.08.9,1.52,1.52,0,0,1,.05.82,3.78,3.78,0,0,0-.08,1.36c.21,1,.06,1.93.2,2.89a14.32,14.32,0,0,1-.08,2.25c-.06,1.77,0,3.55-.15,5.33,0,.34-.09.68-.12,1a6.4,6.4,0,0,1-1.51,3.49,7.83,7.83,0,0,1-4.28,2.37,1.45,1.45,0,0,1-.36,0,18.38,18.38,0,0,0-3.39.16,20.28,20.28,0,0,1-2.8.39,16.41,16.41,0,0,0-1.83-.1c-.64.08-1.26.05-1.9.08-.9,0-1.78-.13-2.68-.12a6.75,6.75,0,0,1-3-.21,1.6,1.6,0,0,0-1.67-.06c-.2.12-.43,0-.64-.05a7.25,7.25,0,0,0-3.11.09,2.91,2.91,0,0,1-1.54.08,6,6,0,0,0-1.51-.12c-.21,0-.4.07-.62.07a6,6,0,0,0-1.76-.07,6.58,6.58,0,0,1-3.65-.09.53.53,0,0,0-.28,0,22.08,22.08,0,0,1-2.69.11c-.93,0-1.83-.15-2.75-.09a5.62,5.62,0,0,1-.88.12,13.34,13.34,0,0,0-3-.11c-1.15.07-2.31-.16-3.44,0-.67.09-1.32-.06-2,.07a8.39,8.39,0,0,1-2.91.06,6.28,6.28,0,0,0-2.48,0,.84.84,0,0,1-.47,0,14.92,14.92,0,0,0-3.95,0c-.22,0-.42.12-.68.07a8.75,8.75,0,0,0-2.51-.26,12.56,12.56,0,0,1-4.49-.13l-.12,0c-.93.06-.93.06-.86-.87.26,0,.34.34.62.3,0-.07,0-.16,0-.22.32-.57,0-.59-.45-.56s-.59.08-.88.13-.39-.19-.45.09.24.2.37.3.5.26.45.5a.78.78,0,0,1-.63.57.65.65,0,0,1-.24,0,6.92,6.92,0,0,1-2.48-.2.42.42,0,0,0-.29,0,5.33,5.33,0,0,1-1.69.26c-.7,0-1.39-.09-2.09-.1a4.63,4.63,0,0,1-2.33-.2c-.13-.07-.37,0-.49.23a.76.76,0,0,1-1,.35,7.35,7.35,0,0,0-2.67-.19c-1.42.17-2.84.07-4.26.17a45.68,45.68,0,0,1-4.68,0,38.45,38.45,0,0,0-3.87-.07,1.65,1.65,0,0,1-.59-.07,7.1,7.1,0,0,0-2.64.12,6,6,0,0,1-1.94-.07,11.52,11.52,0,0,0-2.34-.16,4.14,4.14,0,0,1-1.81-.23c-.11-.06-.28-.22-.39,0s-.39.24-.62.21a18.48,18.48,0,0,0-3.41-.18c-1.34.06-2.71-.06-4,0-1.63.12-3.26-.31-4.88,0a1.26,1.26,0,0,1-.47,0,1.61,1.61,0,0,0-1.22.09.48.48,0,0,1-.29,0,12.89,12.89,0,0,0-2.55-.19c-1.59-.08-3.2.23-4.8-.14-.3-.07-.37-.15-.28-.41s.14-.33.22-.52a.86.86,0,0,1-.56-.19c0-.22.41-.25.32-.46-.16-.38-.59-.16-.87-.32.33.6,0,1.32.45,1.88a.42.42,0,0,1,0,.51c-.08.1-.24,0-.33,0s-.45-.16-.38-.46.11-.3-.13-.38c-.14.17,0,.6-.41.52s-.29-.4-.21-.68a3.54,3.54,0,0,0,.07-.47c0-.11.09-.26-.07-.29s-.18.12-.17.25a1.3,1.3,0,0,1-.32.94c-.1.12-.21.33-.43.13-.45-.4-.4,0-.41.26,0,.13,0,.3-.18.33-.11-.58-.8-.31-1-.72-.41.23-.82,0-1.23,0-.22,0-.41-.08-.42.28,0,.18-1.43.48-1.52.31-.23-.39-.69-.32-1-.61-.08.19.18.33,0,.47s-.18.09-.27,0-.19-.28-.12-.38c.31-.43-.14-.36-.28-.39a3,3,0,0,0-2,.5,6.08,6.08,0,0,1-2,.57c-.66.08-1.2-.34-1.83-.27a21.42,21.42,0,0,1-3.67,0c-.53,0-1,.15-1.55.1-.91-.07-1.82,0-2.73,0a21,21,0,0,1-2.63.07,4.56,4.56,0,0,0-2.87.19.6.6,0,0,1-.68,0,1,1,0,0,0-1-.08,1.42,1.42,0,0,1-.51.13,14.36,14.36,0,0,0-2.07-.11,30.08,30.08,0,0,1-4.35.05,2.06,2.06,0,0,0-.78-.09,14.52,14.52,0,0,1-3.16,0c-.89,0-1.8-.44-2.68.1a1,1,0,0,1-.36,0,18.33,18.33,0,0,1-3.55-.1,2.54,2.54,0,0,0-1.1,0,6.25,6.25,0,0,1-1.93.05c-.84,0-1.7-.11-2.56-.1-.2,0-.41,0-.57-.11a.87.87,0,0,0-.83-.23c-1.33.28-2.67-.12-4,.07a.77.77,0,0,1-.52-.11.65.65,0,0,0-.76,0,1.17,1.17,0,0,1-.59.1c-1.07,0-2.14-.09-3.21-.11-.63,0-1.25-.3-1.88.07-.14.09-.39,0-.58,0a8.86,8.86,0,0,0-3.66-.2.94.94,0,0,1-.47,0,1.85,1.85,0,0,0-1.23,0,9.39,9.39,0,0,1-3.08.14c-1.42,0-2.83-.39-4.27-.37A4,4,0,0,1,47,198.2a15.06,15.06,0,0,1-2.37-.88,6.07,6.07,0,0,1-1.9-1.59,7.15,7.15,0,0,1-1.39-3.47,3.53,3.53,0,0,0-.13-1.33c-.26-.54-.07-.86.51-1-.24-.12-.6-.19-.64-.34-.08-.31.49-.61.07-1,0,0,0-.16.13-.16.42,0,.22-.22.18-.42a7.5,7.5,0,0,1-.31-2.41c0-.37.34-.6.32-1a7.58,7.58,0,0,0-.08-2.42,1.31,1.31,0,0,1,0-.65c.09-.56,0-1.12.09-1.68s-.19-1.3.16-1.93c0-.07,0-.23-.07-.33a2,2,0,0,1-.17-.93c0-.58,0-1.16,0-1.74s-.29-.76-.78-.54a2.38,2.38,0,0,1-.7.07c-.74.11-1.47-.23-2.17,0a7.63,7.63,0,0,1-2,.2c-.52,0-1-.1-1.53-.11a1.23,1.23,0,0,1-1.19-.63.75.75,0,0,0-.95-.29c-.13,0-.19.39-.4.09s.25-.24.21-.5c-.54,0-.54-.4-.63-.8S31.47,171.22,31,170.77ZM176.18,63.39c.09,0,.13-.06.08-.15s-.06,0-.1-.06l0,.21c.1.08-.13.48.28.27a3.13,3.13,0,0,1,.73-.17C176.85,63,176.53,63,176.18,63.39ZM114.62,198.15l.07.11,0,0-.12-.05c0-.16,0-.34,0-.47l-.92.23C113.91,198.37,114.25,198.33,114.62,198.15Zm11.54-13c.12.41-.11.58-.51.65.29.25.46.11.59-.11a1.71,1.71,0,0,1,.42-.61l.44.07h.14l.47-.13.35-.12.26,0,.25,0c.5,0,1,.61,1.49,0,0,0,.11,0,.16,0,.85,0,1.7.1,2.54,0a11.65,11.65,0,0,1,2.13,0c.49.05,1.05.32,1.44.2a11.92,11.92,0,0,1,2.72-.17.7.7,0,0,1,.75.54c.07.29-.29.43-.55.55l-.23.07c-.08,0-.15.07-.11.16s.07.14.1.14c.69-.13,1.42.43,2.09-.11,0-.1-.13-.09-.16-.14-.15-.34-.31-.56-.63-.14-.07.1-.23.09-.23,0a1.8,1.8,0,0,1,.09-.81.42.42,0,0,1,.58-.16c.32.24.55.1.8-.08s.25-.17.39-.11a2.65,2.65,0,0,0,1.42.1,11.32,11.32,0,0,1,2.85.15.87.87,0,0,0,.53,0,4.76,4.76,0,0,1,2.14-.29c1.16.14,2.32,0,3.47.16.54.07,1-.29,1.58-.12a3.85,3.85,0,0,0,1.7.15,6.57,6.57,0,0,1,1.19-.2c1.65,0,3.3,0,4.93.19.86.11,1.67-.19,2.55-.07a12.79,12.79,0,0,0,3.95-.11.81.81,0,0,1,.41,0,2.32,2.32,0,0,0,1.3.11,9.22,9.22,0,0,1,2.51-.09c.81.08,1.65-.33,2.44.13a.15.15,0,0,0,.11,0c.45-.33.9-.18,1.39-.07,1.09.24,2.23-.05,3.34.2a.81.81,0,0,0,.4-.07,3.13,3.13,0,0,1,1.36-.11,7.4,7.4,0,0,0,1.61.08c1-.21,2,.33,3-.06a3.43,3.43,0,0,1,1.2,0c.59,0,1.19.1,1.79.09a14.42,14.42,0,0,1,2.08-.06,9.63,9.63,0,0,0,1.85.11,13.81,13.81,0,0,0,2.79-.21c.14,0,.38-.13.45,0,.23.5.54.21.82.1a1.51,1.51,0,0,1,.69-.15,13.44,13.44,0,0,0,3.52-.23,4.35,4.35,0,0,1,1.25,0,9.89,9.89,0,0,0,2.16.21c1.71-.21,3.42-.13,5.13-.19,2.36-.08,4.72-.05,7.08.05.47,0,1,0,1.41.09,1.1.07,2.2-.55,3.28,0a.41.41,0,0,0,.29,0,1.67,1.67,0,0,1,1.27.23.88.88,0,0,0,.6.06c.47,0,.84-.41,1.29-.39a30,30,0,0,0,4.24-.13c.57,0,1.12.23,1.67.13,1.89-.32,3.76.11,5.64.08a.9.9,0,0,1,.4.09,11.08,11.08,0,0,0,2,.37c.59.18,1.27-.19,1.94-.21a2.24,2.24,0,0,1,1.15,0c.4.17.65,0,.71-.48a8.49,8.49,0,0,1,.26-2.61c0-.08,0-.2,0-.29a19.65,19.65,0,0,1-.16-3c-.08-.78.11-1.59,0-2.38a6.52,6.52,0,0,1,0-1,3.48,3.48,0,0,0-.47-2.53c-.07-.09-.17-.2-.09-.32s.16-.13.3-.11c.38.07.37-.05.28-.42a8.34,8.34,0,0,1-.29-2.46,11.94,11.94,0,0,0,0-3.27,6.61,6.61,0,0,1,0-2c.09-.85,0-1.72.09-2.59,0-.54-.16-1.17-.14-1.76.06-1.43,0-2.85,0-4.28a18.56,18.56,0,0,0-.14-4.65c0-.1-.05-.27,0-.29.59-.31.17-.68.08-1a4.31,4.31,0,0,1-.06-1.19,8.77,8.77,0,0,0-.13-2.17,3.37,3.37,0,0,1-.16-.94,47.52,47.52,0,0,0,.14-4.78c-.07-1-.11-2.13-.12-3.19,0-2.49,0-5,.07-7.45a5.45,5.45,0,0,0,.11-1.12,22,22,0,0,0-.24-2.56.48.48,0,0,1,0-.45,1.39,1.39,0,0,0,.21-1,1,1,0,0,1,.13-.75c.39-.54.12-1.06,0-1.58a2.63,2.63,0,0,1-.2-.62,29.54,29.54,0,0,0-.12-3.88c-.1-1,.25-1.94.11-2.93a14.2,14.2,0,0,1-.12-1.72c0-.91.44-1.74.25-2.66a2.83,2.83,0,0,1,.14-1c.07-.36.45-.93-.36-1.09-.18,0-.45-.3-.34-.56s.39-.08.59,0a3,3,0,0,1,.38.15.41.41,0,0,0,0-.47c-.09-.15-.42,0-.39-.14.07-.66-.39-1.2-.34-1.87a13.21,13.21,0,0,0,0-4,1.64,1.64,0,0,1,0-.66,4.38,4.38,0,0,0,.09-1.63c-.21-1,.24-1.92,0-2.92a6.67,6.67,0,0,1,0-2.74c.08-.42-.44-.89.12-1.24-.56-.41-.13-.93-.16-1.39s.12-1.18.08-1.75a16.84,16.84,0,0,0-.21-2.66c-.05-.2-.13-.55.07-.61.38-.13.21-.37.14-.5a3.85,3.85,0,0,1-.23-1.64c-.07-.8,0-1.59-.15-2.4-.11-.56-.56-.78-.77-1.2.25-.15.36.23.62.07-.07-.55.15-1.15,0-1.67s.22-1,0-1.59-.48-.87-1-.7a4.37,4.37,0,0,1-1.65.1c-1.55-.08-3.11-.16-4.66-.11a2.9,2.9,0,0,1-1.45-.31,1.21,1.21,0,0,0-1.35,0c-.2.15-.45.07-.69,0a8.88,8.88,0,0,0-2.91,0c-.39,0-.8.16-1.21.22-.68.09-1.29-.42-2-.15a1.23,1.23,0,0,1-.65.09c-.38-.09-.84,0-1.12-.37a1.84,1.84,0,0,1-1.21.4,8.89,8.89,0,0,1-3.25-.22.48.48,0,0,0-.29,0,11.59,11.59,0,0,1-2.63.1c-1.45,0-2.89-.13-4.33-.08-1,0-2-.07-3,0-.38,0-.75.33-1.1.15-1-.5-2,0-3,0a15.71,15.71,0,0,1-3.22.11c-.6-.13-1.15.17-1.74.14-1.3-.07-2.57-.25-3.89-.21a29.23,29.23,0,0,1-3.37,0,25.2,25.2,0,0,0-3.36,0c-.28,0-.56.23-.82.1-.9-.43-1.81.06-2.74-.1a15.62,15.62,0,0,0-2.44.1c-1.58,0-3.16,0-4.74,0a11.82,11.82,0,0,0-1.33,0,8.24,8.24,0,0,1-2.62.14,2.72,2.72,0,0,0-1.3.06,2.06,2.06,0,0,1-1.56-.15.56.56,0,0,0-.52-.07,4.15,4.15,0,0,1-2.69.15c-1.21-.13-2.4.07-3.6,0-.77-.07-1.62.06-2.43.06-1.66,0-3.32.07-5-.06a16.52,16.52,0,0,1-3.22-.16,1.44,1.44,0,0,0-.71,0,7.37,7.37,0,0,1-2.09.18c-1.15,0-2.3-.33-3.47-.25a2.79,2.79,0,0,1-1.51-.23c-.12-.07-.3-.2-.37,0-.24.57-.69.27-1,.22a19.37,19.37,0,0,0-3.57-.08,5.39,5.39,0,0,1-1.54.08A3.47,3.47,0,0,0,138,76c-1.59.28-3.18-.3-4.76,0a1.42,1.42,0,0,1-.53-.06,1.44,1.44,0,0,0-.77,0,4,4,0,0,1-2.05,0,10.41,10.41,0,0,0-2,0c-.3,0-.45.23-.67.36-.42.23-.23-.41-.59-.35-1,.19-2-.09-3,.3a.44.44,0,0,1-.29,0,3.14,3.14,0,0,0-2.15-.2,6.14,6.14,0,0,1-2.26,0c-.9-.09-1.83.25-2.69-.2l-.06,0a6.69,6.69,0,0,1-3.08.13c-.56-.06-1.12.29-1.66-.07-.34.37-.74.14-1.12.11-.67,0-1.34-.09-2-.1a15.26,15.26,0,0,1-2.83.16,7.82,7.82,0,0,0-1.89.07,14.37,14.37,0,0,0-3.46.24,2.27,2.27,0,0,1-1.07.05,5.78,5.78,0,0,0-2.29-.2c-1.06.17-2.1,0-3.15.08-1.63.13-3.28,0-4.91.11-1.19.09-2.37,0-3.54,0a23.63,23.63,0,0,0-4.45.1.7.7,0,0,1-.51-.09,1.23,1.23,0,0,0-.92-.18,1.55,1.55,0,0,1-1-.2.93.93,0,0,0-.7-.08,6,6,0,0,1-2.08.37,29.6,29.6,0,0,0-3.64.13,11.39,11.39,0,0,0-2.61-.09,5.59,5.59,0,0,1-1,.13c-1.2,0-2.35-.36-3.56-.29A4.67,4.67,0,0,1,63.12,76a2.47,2.47,0,0,0-1.44-.11c-.55.14-1.14-.05-1.67.27a.41.41,0,0,1-.51-.07c-.51-.61-.89-.32-1.26.16,0,0-.1,0-.14,0,0-.26.29-.34.21-.64a4.41,4.41,0,0,1-1.62,0c-.42-.1-.92.28-1.36-.12-.07-.06-.11,0-.17.09s-.33.19-.24.49c.2.63-.7,1.28,0,1.92,0,0,0,0,0,.06a5.4,5.4,0,0,0-.1,2,8,8,0,0,0,.11,2.08c.2.69-.19,1.14-.34,1.69a.37.37,0,0,0,.07.28c.15.25.23.43-.09.65s-.17.6,0,.67.76,1.28.54,1.41c-.4.24-.39.67-.6,1a1.81,1.81,0,0,0-.23,1.92c.16.32.28.66.42,1A3.82,3.82,0,0,1,55,93.88a1.13,1.13,0,0,0-.08.65,24.94,24.94,0,0,1,.07,4c0,.68,0,.68-.71.49a.9.9,0,0,0-1.06.24c.09,0,.14.08.16.07.49-.3.92.24,1.43.09.18-.06.36.24.26.49A2.58,2.58,0,0,0,55,101a30.76,30.76,0,0,1,.05,4.8,3.14,3.14,0,0,0,.33,2.23.51.51,0,0,1-.06.61.9.9,0,0,0-.07,1,.78.78,0,0,1,.11.46,24.39,24.39,0,0,0-.1,3.08c-.05.66.15,1.28.09,2a16.67,16.67,0,0,0,.13,3.73,12.69,12.69,0,0,0,0,2.54.6.6,0,0,1,0,.23c-.05,1.22-.11,2.43-.14,3.64a7.06,7.06,0,0,1-.5,3.52.57.57,0,0,0,0,.62,1.17,1.17,0,0,1,.11,1,7.3,7.3,0,0,0,.08,3.22,2.84,2.84,0,0,1,.09,1.6,2.77,2.77,0,0,0-.13,1.14c0,.62.32,1.29-.25,1.84a.17.17,0,0,0,0,.15,4.51,4.51,0,0,1,.37,2.66,18.15,18.15,0,0,0-.19,1.85c.24,2.09-.24,4.17.13,6.25a.33.33,0,0,1,0,.17,8.68,8.68,0,0,0-.13,2.54c0,1.27-.08,2.55,0,3.81,0,.68,0,1.36.07,2a9.53,9.53,0,0,1,0,2.87,5.49,5.49,0,0,0,0,2.55.72.72,0,0,1,0,.41c-.39,1.17,0,2.35-.1,3.53,0,.3.22.64.16.92a10.92,10.92,0,0,0-.28,2.8,11.8,11.8,0,0,1-.14,4.39s0,.11,0,.16c.17.73.13.78-.63.87-.12,0-.25.1-.32,0s.09-.17.12-.25.3-.32.11-.35-.32-.35-.49-.24a.57.57,0,0,0-.22.47,5.89,5.89,0,0,1,.14,1.24c0,.14,0,.25.14.28s.15-.13.18-.22c.12-.32.29-.7.63-.61a.76.76,0,0,1,.52.89c-.09.8.21,1.64-.22,2.41,0,0,0,.16,0,.23a7,7,0,0,1,.27,2,24.26,24.26,0,0,0,0,2.56c0,.14-.07.33.19.35a4.77,4.77,0,0,0,1.47.12,5.8,5.8,0,0,1,2,0,3.3,3.3,0,0,0,1,0c.49-.08,1.19-.26,1.45,0,.42.39.69.12,1,.11.11,0,.22.09.33.1a12.85,12.85,0,0,1,2.48.11c.07,0,.18-.08.27-.11a9.19,9.19,0,0,1,2-.13c.24,0,.17.28.37.34.11-.42.45-.66.8-.45s0,.47-.17.68.15.36.2.55a8.09,8.09,0,0,0,1.09-.46c.24-.13-.12-.21-.1-.37s0-.35.25-.4A3.87,3.87,0,0,1,72,185c0,.27-.3.28-.3.49a5.06,5.06,0,0,0,2.86,0c.13-.05.33-.18.38-.05.21.56.44.26.71.07a.52.52,0,0,1,.35,0,11.43,11.43,0,0,0,1.54.13,4.06,4.06,0,0,0,1.59-.1,8,8,0,0,1,2.62-.21c.07,0,.17,0,.18.09,0,.3.25.23.4.16a2.41,2.41,0,0,1,1.52-.15c.48.11,1-.56,1.45.08l.1,0a13.06,13.06,0,0,1,1.78-.37,39.37,39.37,0,0,1,4.07-.09c1.39-.1,2.79.4,4.2.13a.37.37,0,0,1,.18,0,3.33,3.33,0,0,0,1.37,0,4.41,4.41,0,0,1,1.62,0,13.29,13.29,0,0,0,2.82,0,30.56,30.56,0,0,0,3.45,0,13.46,13.46,0,0,1,2.3-.06c1.88-.05,3.76.05,5.64,0a8.74,8.74,0,0,0,1.26,0,9,9,0,0,1,2.43-.2,3,3,0,0,0,1.31,0,2.16,2.16,0,0,1,1.79.12.59.59,0,0,0,.4.08,12.73,12.73,0,0,1,2.13-.23,6.24,6.24,0,0,1,2.11.16A3.45,3.45,0,0,0,126.16,185.15ZM186.07,74.91c0-.45-.13-.86-.52-.83a8.52,8.52,0,0,1-2.76,0,.24.24,0,0,0-.19.12c0,.1.05.18.14.22s.28.15.4.12a8.79,8.79,0,0,1,2.05,0C185.53,74.58,185.89,74.46,186.07,74.91ZM53.12,166.56c.79-.07,1-.3.83-1a3,3,0,0,1,0-1.91c.07-.2,0-.49-.15-.52s-.33.27-.31.48a13.64,13.64,0,0,1,0,2.12C53.47,166.06,53.59,166.4,53.12,166.56Zm143.26,30.25c0,.69.29.92.91.78a3.46,3.46,0,0,1,2,0c.17.06.51.12.54-.17s-.3-.29-.47-.27a19.64,19.64,0,0,1-2.17,0C196.85,197.14,196.55,197.2,196.38,196.81ZM253.91,86.07c.78-.11,1-.35.74-1.08a2.67,2.67,0,0,1-.06-1.63.42.42,0,1,0-.4-.22,12.1,12.1,0,0,1,0,2.17C254.2,85.6,254.32,85.91,253.91,86.07Zm-142.07-22c0-.56-.3-.91-.86-.77a3.82,3.82,0,0,1-2.17,0,.49.49,0,0,0-.24,0c-.1,0-.21.06-.21.17s.08.13.14.16a.82.82,0,0,0,.4.13,12.23,12.23,0,0,1,2.18,0A.71.71,0,0,1,111.84,64.09Zm-57.48,61.6c.62,0,.78-.21.63-.86a2.71,2.71,0,0,1-.13-1.57,1,1,0,0,0,0-.86.12.12,0,0,0-.2,0,1,1,0,0,0-.16.91c.22.7-.15,1.41,0,2.11C54.59,125.58,54.37,125.56,54.36,125.69Zm181.23-50.4c0,.71.26,1,.88.81a3.34,3.34,0,0,1,2.05,0c.17.06.5,0,.51-.16s-.31-.3-.5-.28a10.83,10.83,0,0,1-2.13,0C236.09,75.59,235.75,75.72,235.59,75.29Zm1.52,122.52c0,.77.39,1,1.09.8a2.36,2.36,0,0,1,1.57-.09c.14,0,.35.11.38-.13a.23.23,0,0,0-.32-.25,8.44,8.44,0,0,1-1.88,0C237.59,198.17,237.3,198.17,237.11,197.81ZM195.92,75.18a.72.72,0,0,0-.56,0c-.15,0-.28,0-.33-.15s-.12-.31-.33-.16a1,1,0,0,1-1,.12c-.39-.23-.59.06-.88.11.55,0,1.07.2,1.6.19S195.42,75.51,195.92,75.18Zm-101,111c.16.44.88-.52.89.42,0,.1.2,0,.3-.06a1,1,0,0,1,1-.16c.39.23.63,0,.93-.09-.53,0-1-.17-1.57-.18A3.28,3.28,0,0,0,94.89,186.2ZM42.62,109.28c0,.34-.27.56-.25.91s-.12.71.05.86c.39.32-.25.58,0,.86,0-.83,0-.83.55-.72A2,2,0,0,1,42.62,109.28Zm212.26,37.84a1,1,0,0,0-.24,1,1.94,1.94,0,0,1,0,1.12c0,.09-.09.2,0,.26a.45.45,0,0,0,.23,0c.19,0,.12-.17.09-.28a2.4,2.4,0,0,1,.08-1.4A.56.56,0,0,0,254.88,147.12ZM248,101.54a1.87,1.87,0,0,0-1.9-.59c-.11,0-.24.09-.2.24s.15.09.25.07C246.74,101.09,247.3,101.44,248,101.54ZM47.16,182a1.67,1.67,0,0,0-1.83-.61c-.1,0-.19.09-.18.2a.19.19,0,0,0,.11.12,2.23,2.23,0,0,1,1.11.13A5.25,5.25,0,0,1,47.16,182Zm133.93,6.62c.37.82-.22,1.44-.1,2.15A1.39,1.39,0,0,0,181.09,188.66ZM114.9,64.91c-.64,0-.79.33-1,.65-.06.11-.4,0-.29.35,0,.11.07.24.22.25a.47.47,0,0,0,.43-.36A1.56,1.56,0,0,1,114.9,64.91Zm-11.56,121.4c-.77-.33-1.61,0-2.39-.23A3,3,0,0,0,103.34,186.31ZM185.58,75.23c-.37-.47-.89-.11-1.29-.35-.12-.08-.17.22-.27.34s0,.21.08.19C184.56,75.2,185.11,75.72,185.58,75.23Zm7.91,120.71c.47.05.56-.39.83-.59s.33,0,.27-.28-.07-.3-.23-.32-.29.13-.37.26A4.59,4.59,0,0,1,193.49,195.94Zm-151-92.43c-.25.81,0,1.64-.19,2.44A3.33,3.33,0,0,0,42.51,103.51Zm.23-1.33c.76-.13.92-.34.8-1,0-.14,0-.36-.23-.33s-.31.15-.25.38A.69.69,0,0,1,42.74,102.18Zm63.15,84.26c.19-.12.33,0,.5.09s.35-.16.38-.34-.19-.18-.33-.18-.47.1-.51,0c-.2-.34-.37-.06-.54,0a.15.15,0,0,0,0,.25A.55.55,0,0,0,105.89,186.44ZM52.36,169.59c0-.62-.39-.72-.63-1-.09-.1-.06-.32-.28-.29a.32.32,0,0,0-.31.25.38.38,0,0,0,.3.4A1.59,1.59,0,0,1,52.36,169.59ZM188.17,75a3.86,3.86,0,0,0,1.68.27A2.52,2.52,0,0,0,188.17,75Zm-62,120.67c-.76.93-.76,1.16-.06,1.33,0-.21,0-.54.11-.62C126.71,196.1,126.44,195.91,126.2,195.68ZM205,197.57c-.31-.33-.55-.48-.88-.21a.33.33,0,0,1-.48,0c-.08-.07-.19-.12-.25,0s.07.17.16.25C204,198,204.47,197.5,205,197.57ZM180.41,75.29c.4.3.52-.16.79-.1s.12-.44.41-.45c-.12-.24-.28-.11-.44-.07s-.29-.14-.49,0C181.19,75,180.83,75.17,180.41,75.29Zm74.41,68.29c.73-.42.3-1,.21-1.51-.21.13-.41.26-.28.48A1,1,0,0,1,254.82,143.58Zm-201.15,16c.55-.42.56-.66.13-1.49a.45.45,0,0,0-.08.71C54,159,53.67,159.27,53.67,159.55Zm.46-66.17c.17-.36.69-.51.17-.89-.07,0,.29-.24,0-.19-.12,0-.39,0-.28.3A6,6,0,0,1,54.13,93.38ZM104.76,63.6c-.41-.72-.93-.27-1.53-.19.25.2.38.44.66.24A.77.77,0,0,1,104.76,63.6ZM80.57,75.41c0,.12.08.11.74,0,.11,0,.3,0,.23-.13-.18-.33-.47,0-.71-.06S80.58,75.23,80.57,75.41Zm162.58,43.9c-.48.2-.32.52-.25.82,0,.11.08.2.2.19s.14-.13.13-.24S243.18,119.61,243.15,119.31Zm-133,67.54a.63.63,0,0,0-.22-.35c-.12-.11-.17-.38-.38-.25s-.33.34-.3.47.29,0,.44,0ZM71,186c.68.36.8.34,1.25-.19C71.87,186.11,71.48,185.86,71,186Zm-29-50.13c-.15-.12.12-.47-.16-.55s-.28.2-.24.39,0,.48.29.51C42.1,136.27,42.11,136.11,42.07,135.91Zm185.58,49.73c-.18-.47-.49-.34-.8-.26-.1,0-.2.05-.19.18s.11.15.22.14ZM42.07,101.12c.15.18.11.56.45.45a.48.48,0,0,0,.16-.41C42.54,100.84,42.29,101.1,42.07,101.12Zm212.91,49-.2-.16c-.14.21-.22.47-.47.58,0,0,.1.12.13.11C254.69,150.6,254.8,150.37,255,150.16ZM162.69,73.34c-.1,0-.17,0-.16.13s0,.34.19.39a.14.14,0,0,0,.2-.15C162.91,73.56,162.87,73.39,162.69,73.34Zm-45.4-8.92c-.2-.17-.39-.37-.67-.31-.09,0,0,.12,0,.19C116.78,64.65,117.05,64.45,117.29,64.42Zm-4.36-.51c-.2-.11-.27-.46-.57-.35a.28.28,0,0,0-.09.37C112.45,64.23,112.68,63.88,112.93,63.91ZM226.1,63c0-.15-.15-.16-.24-.22-.24-.16-.45,0-.67.08s-.08.16,0,.21.38,0,.57,0S226,63.19,226.1,63Zm-30.16,134c0-.15-.07-.27-.2-.19s-.42,0-.42.22.25.26.4.3S195.86,197.16,195.94,197.06ZM53.36,167.67c.25-.15.43-.32.38-.56s-.32-.17-.41-.09S53.33,167.43,53.36,167.67Zm-.59,4.44a.89.89,0,0,0,.41-.68c0-.06-.12-.09-.2-.05C52.69,171.53,52.82,171.79,52.77,172.11Zm1.64-80.34c-.1-.11-.16-.23-.25-.27s-.3-.22-.48-.09a.19.19,0,0,0-.07.14c.08.16.27.12.41.17S54.22,91.86,54.41,91.77ZM115.13,198.2a.77.77,0,0,0,.44-.67.13.13,0,0,0-.16-.12c-.26.12-.15.42-.29.61C115.1,198,115.12,198.09,115.13,198.2ZM42.18,107.53c.68-.1.08-.65.35-1C42.58,107,42.31,107.23,42.18,107.53ZM86.32,75a.41.41,0,0,0-.4.48c0,.11.19.12.25.08S86.18,75.15,86.32,75Z"
          transform="translate(-31 -62.07)" style="fill:#edbb29"/>
    <path d="M112.94,237.93a4.58,4.58,0,0,0-1.68-.22,6.2,6.2,0,0,1-3.05-.93,2.59,2.59,0,0,1-1.33-2.34,35.19,35.19,0,0,0,0-3.7,19.11,19.11,0,0,1,.06-3.46,15.85,15.85,0,0,0-.1-2.38,5.47,5.47,0,0,0-.15-2.09c-.06-.13-.21-.61.3-.68.18,0,.08-.18,0-.27a1.4,1.4,0,0,1-.24-1.31,13.14,13.14,0,0,0-.06-1.65,8.08,8.08,0,0,1,.13-2.72,2.82,2.82,0,0,0-.09-1.33,10.38,10.38,0,0,1-.09-1.76,8.79,8.79,0,0,1,.33-2.28c0-.28.46-.35.7-.5a5.59,5.59,0,0,1,3-.85c1.78,0,3.56,0,5.33,0,2.08,0,4.15.06,6.22,0a17.69,17.69,0,0,1,3.09,0c.78.11,1.52-.11,2.27,0a6.22,6.22,0,0,1,1.91.35,2.3,2.3,0,0,1,1.26,2.08c0,.94.08,1.88.07,2.82,0,1.82.11,3.65,0,5.47-.07,1,0,2.05,0,3.06-.06,1.44-.08,2.9-.28,4.35a4.33,4.33,0,0,0,.09,1.67,5.53,5.53,0,0,1,.08,2.07c-.16,1.12,0,2.26-.11,3.38a2.71,2.71,0,0,1-1.6,2.28,9.43,9.43,0,0,1-4.08.7c-2.28,0-4.56,0-6.84,0-1.06,0-2.12,0-3.18,0-.26,0-.56-.12-.78.13ZM122,227.12c-.5-.22-.52-.63-.54-1.09s.2-.83.11-1.22a8.34,8.34,0,0,1-.08-2,22,22,0,0,1,0-2.81,5.87,5.87,0,0,0,0-1.33,5,5,0,0,1,0-2.49.8.8,0,0,0-.07-.73.68.68,0,0,1,0-.63c.17-.44-.07-.45-.4-.47-.5,0-1,.18-1.47.17-1,0-2,0-2.93,0-.82,0-.82,0-.8.83,0,.32,0,.64,0,1,0,1.81,0,3.63,0,5.44,0,.67-.12,1.34-.06,2,.11,1.38,0,2.76,0,4.14,0,.82,0,1.64,0,2.46a9.08,9.08,0,0,1,0,1.95c-.14.51-.06.6.46.58a14.28,14.28,0,0,1,2.61-.14c.77.1,1.55,0,2.32.16.55.12.81-.17.57-.64-.35-.68-.13-1.39-.24-2.08a1.63,1.63,0,0,1,0-1,1.07,1.07,0,0,0,0-.84A1.07,1.07,0,0,1,122,227.12Z"
          transform="translate(-31 -62.07)" style="fill:#edbb29"/>
    <path d="M212.29,237.79c-.5,0-1,0-1.49,0-1.05,0-1.45-.13-1.37-1.22.12-1.63-.1-3.26,0-4.89,0-.2-.07-.39.21-.48s.19-.3.12-.42c-.64-1.12-.11-2.31-.19-3.46a17,17,0,0,0-.33-2c-.07-.34-.48-.43-.78-.48-.46-.06-.57-.3-.56-.72,0-.87,0-1.75,0-2.63a.67.67,0,0,1,.67-.7c.45,0,.53-.25.54-.65a21.7,21.7,0,0,1,.19-2.53,12.25,12.25,0,0,0-.09-2.7,2.06,2.06,0,0,1,.17-1.44.28.28,0,0,0,0-.22c-.24-.79,0-1.64-.29-2.42-.08-.25.26-.5,0-.75-.07-.06.1-.19.18-.16.7.28,1.14-.56,1.87-.39a8,8,0,0,0,2,.09c2.3,0,4.59,0,6.89,0,.61,0,1.23,0,1.85,0a1.37,1.37,0,0,1,1,.21.52.52,0,0,0,.41.07,31.58,31.58,0,0,1,5.67-.07,5.5,5.5,0,0,1,1.27.44c-.19.21-.45.29-.36.73a12.46,12.46,0,0,1,0,3,.46.46,0,0,1-.56.42,6.35,6.35,0,0,0-2.13-.05c-2.3,0-4.6,0-6.89,0-.26,0-.51-.07-.77-.09-.67,0-.76.39-.75.87,0,1.25-.06,2.5-.15,3.74a2.23,2.23,0,0,1-.1,1c-.1.19.65.84.89.77a7,7,0,0,1,2.14-.14c2.38,0,4.75,0,7.13,0,.47,0,.59.2.4.65-.06.12.06.17.09.26a1.49,1.49,0,0,1,0,1c-.18.44.29.84.12,1.3-.05.14,0,.39-.11.44-.4.18-.11.34,0,.49s.11.35-.2.36c-2.22,0-4.44.13-6.65.05-1,0-2,.12-3,0a.42.42,0,0,0-.47.49c.08,2.24,0,4.48.16,6.72.06.85.06.92,1,.89,2-.07,3.92,0,5.87,0a21,21,0,0,1,2.75.09,1.2,1.2,0,0,1,1.07,1.37c-.2.87.12,1.77-.2,2.63a.35.35,0,0,0,.15.48l-.26.1c-1.94-.11-3.88-.11-5.82-.1-2.1,0-4.21.1-6.32.05-.25,0-.52-.07-.72.15h-.6a.35.35,0,0,0-.36-.16Zm14.79-16.57.46,0c.17,0,.32,0,.39-.17a.14.14,0,0,0,0-.15c-.14-.08-.25,0-.37.07Z"
          transform="translate(-31 -62.07)" style="fill:#edbb29"/>
    <path d="M189.38,272.64c-.49,0-1-.05-1.47-.05-1,0-1.42-.13-1.34-1.23.12-1.66-.09-3.31,0-5,0-.19-.07-.39.21-.48s.19-.3.12-.42c-.63-1.14-.11-2.35-.19-3.52a15.91,15.91,0,0,0-.32-2.07c-.07-.33-.47-.43-.77-.48-.45-.06-.55-.3-.54-.73,0-.89,0-1.78,0-2.67a.68.68,0,0,1,.66-.71c.44,0,.52-.25.53-.65a22.22,22.22,0,0,1,.19-2.57,14,14,0,0,0-.09-2.74,2.13,2.13,0,0,1,.16-1.45.34.34,0,0,0,0-.24c-.24-.8-.05-1.65-.29-2.45-.08-.25.26-.51,0-.76-.06-.06.1-.19.18-.16.69.29,1.12-.56,1.83-.39a8.14,8.14,0,0,0,1.92.09c2.25,0,4.49,0,6.74,0,.6,0,1.2-.05,1.81,0a1.35,1.35,0,0,1,.95.22.44.44,0,0,0,.39.07,29.41,29.41,0,0,1,5.55-.07,5,5,0,0,1,1.25.45c-.19.21-.44.29-.36.74a13.34,13.34,0,0,1,0,3,.46.46,0,0,1-.55.43,5.88,5.88,0,0,0-2.09,0c-2.25,0-4.5,0-6.75,0-.25,0-.49-.07-.75-.08-.65,0-.74.39-.73.87,0,1.27-.06,2.54-.15,3.8a2.27,2.27,0,0,1-.1,1c-.1.19.64.85.87.78a6.75,6.75,0,0,1,2.1-.14c2.33,0,4.65,0,7,0,.46,0,.58.21.39.66-.06.12.06.18.09.27a1.52,1.52,0,0,1,0,1.05c-.18.45.28.85.11,1.32-.05.14,0,.39-.1.45-.4.17-.11.33,0,.49s.1.36-.2.36c-2.17.05-4.34.13-6.51.05a28.44,28.44,0,0,1-2.92,0c-.21,0-.47.11-.46.49.09,2.27,0,4.55.16,6.82.06.86.06.92,1,.89,1.92-.06,3.84,0,5.75,0a20.1,20.1,0,0,1,2.69.09,1.2,1.2,0,0,1,1,1.39c-.19.88.12,1.8-.19,2.67a.36.36,0,0,0,.15.49l-.26.09c-1.9-.11-3.8-.1-5.69-.1-2.06,0-4.13.1-6.19.05-.24,0-.51-.07-.71.15h-.59c-.07-.15-.21-.16-.34-.16Zm14.47-16.81.45,0c.16,0,.32,0,.39-.17a.19.19,0,0,0,0-.15c-.14-.08-.26,0-.37.07Z"
          transform="translate(-31 -62.07)" style="fill:#edbb29"/>
    <path d="M78,237.69l-6.62.12-1.55,0c-1,0-1.33-.33-1.29-1.26,0-.55.09-1.14.07-1.65a11.6,11.6,0,0,0-.17-2.43,4.22,4.22,0,0,1,.13-1.88c.12-.63-.16-1.19,0-1.77.19-.81-.16-1.62,0-2.45.12-.47-.1-1,.41-1.39,0,0,0-.15,0-.21-.3-.57-.12-1.26-.44-1.82a.49.49,0,0,1,0-.52.65.65,0,0,0,.08-.52,39.69,39.69,0,0,1,0-5.77c0-1.08-.1-2.17-.06-3.25s0-2,0-2.93c0-.35.18-.41.43-.41l7.75-.05c.61,0,.93.15,1.08.83s.6,1.13.75,1.78a8.69,8.69,0,0,0,1.24,2.9c.58.89.91,1.89,1.44,2.81.65,1.14,1.28,2.31,1.83,3.5a10.07,10.07,0,0,0,1.08,2.15,1.39,1.39,0,0,0,.59-1.29.21.21,0,0,1,0-.17c.94-1.09.89-2.61,1.61-3.77a15.55,15.55,0,0,0,1.28-2.87c.46-1.29,1.08-2.48,1.59-3.72.21-.53.39-1.1.64-1.63a.71.71,0,0,1,.72-.42c2.42,0,4.84,0,7.27,0,.45,0,1-.14,1.33.14s0,.78,0,1.19q-.07,3.69,0,7.36c0,1-.07,2-.06,2.93s.09,2.08.11,3.12,0,2,0,3c0,3-.17,5.92,0,8.88a5.08,5.08,0,0,0,0,.89c.16.57-.08.62-.54.65-1.86.13-3.72,0-5.58,0-.91,0-1.83,0-2.75,0-.41,0-.49-.19-.43-.51a10.32,10.32,0,0,1,.29-2.41s0-.09,0-.11c-.6-.77-.15-1.62-.21-2.44,0-.41-.14-.84.23-1.23a.78.78,0,0,0,0-.74c-.42-.55.1-1.06,0-1.63a7.67,7.67,0,0,1,.16-2.06c0-.19-.19-.36-.29-.21s-.47.33-.55.56c-.57,1.72-1.74,3.13-2.48,4.76a13.53,13.53,0,0,1-1.34,2.44c-.25.36-.2.94-.52,1.36s-.46.79-.71,1.17c-.38.56-.67.57-1,0a13.65,13.65,0,0,1-1.24-2.29,24.81,24.81,0,0,0-1.62-2.94c-.34-.61-.59-1.28-1-1.85a17.52,17.52,0,0,0-1.92-2.82c-.21.13-.13.27-.12.4a8,8,0,0,1,0,2.19,5.48,5.48,0,0,0,.11,1c0,1.19-.33,2.39.13,3.55,0,.06.08.12.07.16-.3,1.17.2,2.32,0,3.48A.14.14,0,0,1,78,237.69ZM98.6,210.12a2.71,2.71,0,0,0-1.36-.21.18.18,0,0,0-.08.14c0,.09.09.1.17.13s.59-.17.57.33c0,.06.17,0,.19,0C98.16,210.22,98.44,210.27,98.6,210.12Z"
          transform="translate(-31 -62.07)" style="fill:#edbb29"/>
    <path d="M156.67,237.68c-2.87,0-5.74.08-8.61.1-2.5,0-5,0-7.48-.05-.58,0-1.13.05-1.69.07l0,0h0l-.18-.82c0-.09.22-.16,0-.29s-.18-.13-.17-.14c.26-.5-.11-1,0-1.49a18.28,18.28,0,0,0,0-3.39,33.6,33.6,0,0,0,.06-3.75c-.1-.82.1-1.61,0-2.42,0-.46-.26-.73-.78-.64s-.71-.11-.69-.65c0-.8-.06-1.6,0-2.41.09-1.05.1-1.09,1.15-1.11l.39,0a3.13,3.13,0,0,1-.06-1.79,6.58,6.58,0,0,0,0-2.17,16.69,16.69,0,0,1-.11-4.24c0-.71,0-1.41,0-2.11,0-.5.11-.77.63-.77,2.32,0,4.64.05,7,.05,2,0,4,0,6-.05,1.48,0,3,.1,4.43,0a8.46,8.46,0,0,1,2.81.31,1.48,1.48,0,0,1,1.28,1.57,31.48,31.48,0,0,1,.11,4.66,23.72,23.72,0,0,0,.09,3.67c0,.48-.25.78-.41,1.16a3.49,3.49,0,0,1-1.27,1.34c-.35.29-.77.15-1.32.33a7.75,7.75,0,0,1,2.54,1.26,1.73,1.73,0,0,1,.83,1.64c-.1.83.13,1.66.05,2.5a21.68,21.68,0,0,0,0,2.55c0,1-.1,1.89,0,2.83a.83.83,0,0,1-.19.78s-.16.12,0,.11c.52,0,.1.32.18.47a1,1,0,0,1-.19,1.15,3.19,3.19,0,0,1-.92.91A9.71,9.71,0,0,1,156.67,237.68Zm-4.37-7.44c-.07-.16-.09-.28-.14-.29-.64-.19-.54-.72-.55-1.18,0-1,0-2,0-3,0-.63-.11-.75-.75-.7a4,4,0,0,1-1.33.08,3.34,3.34,0,0,0-1.63-.07.81.81,0,0,0-.68.87c.16,1.29,0,2.58.05,3.87a6,6,0,0,1-.23,2.81c-.05.1-.05.22.06.26.43.13.86.43,1.31.26.28-.11.5,0,.73,0,.76-.09,1.51.25,2.27.06.17,0,.31-.06.28-.28-.1-.79,0-1.59,0-2.38C151.69,230,151.93,230.08,152.3,230.24Zm-5.68-12.6c.1.26.27.25.42.3s.19,0,.19.22c0,.74.07,1.49.1,2.24,0,.21.07.33.3.36a24.6,24.6,0,0,0,3.54.12c.52,0,.86-.11.58-.75a1.05,1.05,0,0,1,0-.47c0-1.35.1-2.7,0-4,0-.21-.23-.42,0-.66s0-.51-.24-.56a5.05,5.05,0,0,0-1.29-.14c-.75,0-1.51.06-2.27,0-.49,0-.65.19-.59.65a12.71,12.71,0,0,1-.18,2.22C147.22,217.52,147.14,217.82,146.62,217.64Zm6.52,13.29c-.27.43.45.46.32.83a.14.14,0,0,0,.18.17.41.41,0,0,0,.22-.19c.07-.15-.09-.15-.16-.18a.46.46,0,0,1-.31-.6c.05-.16,0-.31-.17-.31S153.13,230.84,153.14,230.93Zm-3.58-6,.1-.06s0-.06-.08-.06l-.09.06Z"
          transform="translate(-31 -62.07)" style="fill:#edbb29"/>
    <path d="M87.61,273.05c-2.93,0-5.87.09-8.8.1-2.55,0-5.1,0-7.65,0-.59,0-1.16.06-1.73.08l0,0h0l-.18-.85c0-.1.22-.17,0-.3s-.19-.13-.18-.15c.27-.51-.11-1,0-1.54a19.49,19.49,0,0,0,0-3.5A35.76,35.76,0,0,0,69,263c-.1-.85.11-1.67.06-2.5,0-.48-.27-.76-.8-.66s-.73-.12-.71-.67c0-.83-.06-1.66,0-2.49.1-1.09.1-1.13,1.18-1.15l.4,0a3.21,3.21,0,0,1-.06-1.84,7.37,7.37,0,0,0,0-2.25A16.43,16.43,0,0,1,69,247c0-.72,0-1.45,0-2.17,0-.52.1-.8.64-.8,2.37,0,4.74.05,7.11.05,2,0,4.09,0,6.14-.05,1.5,0,3,.1,4.52,0a8.54,8.54,0,0,1,2.87.32A1.53,1.53,0,0,1,91.6,246a33.43,33.43,0,0,1,.11,4.8,25.39,25.39,0,0,0,.09,3.8c0,.5-.26.8-.42,1.2a3.46,3.46,0,0,1-1.3,1.38c-.35.3-.79.16-1.35.34a7.83,7.83,0,0,1,2.6,1.3,1.81,1.81,0,0,1,.85,1.7c-.1.86.14,1.71,0,2.58a23.08,23.08,0,0,0,0,2.63c0,1-.1,1.95,0,2.93a.85.85,0,0,1-.2.8s-.16.12,0,.12c.54,0,.1.33.19.48a1.05,1.05,0,0,1-.2,1.2,3.29,3.29,0,0,1-.93.93A9.79,9.79,0,0,1,87.61,273.05Zm-4.46-7.69c-.08-.16-.09-.29-.14-.3-.66-.19-.56-.74-.56-1.22,0-1,0-2.09,0-3.14,0-.65-.11-.77-.76-.72a4.3,4.3,0,0,1-1.37.09,3.23,3.23,0,0,0-1.66-.08.82.82,0,0,0-.69.9c.16,1.33,0,2.66,0,4a6.24,6.24,0,0,1-.24,2.9c0,.1,0,.23.06.27.44.14.87.45,1.34.27.28-.11.51,0,.74,0,.79-.1,1.55.25,2.33.06.18,0,.31-.06.28-.29-.09-.82,0-1.64,0-2.46C82.52,265.06,82.77,265.2,83.15,265.36Zm-5.81-13c.1.27.28.27.43.32s.19,0,.19.22c0,.77.08,1.54.1,2.32,0,.22.07.34.31.37a25.72,25.72,0,0,0,3.62.13c.53,0,.88-.12.59-.78a1.32,1.32,0,0,1,0-.49c0-1.39.11-2.78.05-4.18,0-.22-.23-.44,0-.69s0-.52-.25-.58a5.74,5.74,0,0,0-1.32-.14c-.77,0-1.54.06-2.32,0-.5,0-.67.2-.6.66a13.64,13.64,0,0,1-.19,2.3C78,252.22,77.87,252.53,77.34,252.34ZM84,266.08c-.28.45.46.47.32.86a.15.15,0,0,0,.19.17.43.43,0,0,0,.22-.2c.08-.15-.09-.15-.16-.18a.47.47,0,0,1-.31-.63c0-.16,0-.32-.18-.31S84,266,84,266.08Zm-3.66-6.15.1-.06s0-.06-.08-.06-.06,0-.09.06Z"
          transform="translate(-31 -62.07)" style="fill:#edbb29"/>
    <path d="M199.34,237.64c-2.65.14-5.3.16-8,0-.85,0-1.7.2-2.56.11-.65-.06-1.31-.06-2-.1a1.1,1.1,0,0,1-.83-1.06,8.33,8.33,0,0,1,.19-2.63c0-.08-.11-.22-.11-.33,0-.45-.37-1,.22-1.32,0,0,0-.12,0-.14-.65-.67-.31-1.51-.33-2.24-.05-2.23,0-4.45.09-6.68,0-.92,0-1.85,0-2.77s-.08-1.85,0-2.77a11.56,11.56,0,0,1,.11-3.05,1.42,1.42,0,0,0,0-.71,9,9,0,0,1-.1-3.15c0-.12-.08-.26-.12-.39s-.08-.35,0-.38c.43-.12.6-.66,1.25-.56a18.84,18.84,0,0,0,2.2-.14,13.37,13.37,0,0,1,2.6.17,4.52,4.52,0,0,0,1.66-.15c.29,0,.55.06.83,0a.23.23,0,0,1,.28.16,11.93,11.93,0,0,1,.37,3.72,15.91,15.91,0,0,0,0,3.38,31.56,31.56,0,0,1,.06,4.35c0,1.65,0,3.31.07,5,0,.6.25,1.3-.22,1.87a.21.21,0,0,0,0,.16,24.6,24.6,0,0,1,.09,4.54c0,.6.47.47.77.49a7.1,7.1,0,0,0,1.38-.07c1.45-.17,2.91.07,4.37,0,.82-.07.8,0,.91.82a12.37,12.37,0,0,1-.09,2.72c-.08.85-.54,1.18-1.39,1.17l-.89,0Zm-11.28-16.73c-.29-.29-.55-.23-.89,0Z"
          transform="translate(-31 -62.07)" style="fill:#edbb29"/>
    <path d="M181.59,272.5a77.64,77.64,0,0,1-7.78,0c-.83,0-1.66.2-2.51.12-.64-.07-1.28-.07-1.93-.11a1.12,1.12,0,0,1-.81-1.06,8.68,8.68,0,0,1,.19-2.64c0-.08-.11-.22-.11-.33,0-.46-.36-1,.22-1.32,0,0,0-.13,0-.15-.64-.67-.31-1.51-.33-2.25-.05-2.23,0-4.47.1-6.7,0-.93,0-1.86,0-2.78s-.08-1.86,0-2.78a12.06,12.06,0,0,1,.11-3.06,1.59,1.59,0,0,0,0-.72,9,9,0,0,1-.1-3.15.92.92,0,0,0-.12-.4c0-.14-.07-.35,0-.38.43-.13.59-.66,1.23-.56a17.89,17.89,0,0,0,2.15-.14,12.9,12.9,0,0,1,2.55.16,4.12,4.12,0,0,0,1.62-.14c.28-.05.54.06.81,0a.22.22,0,0,1,.27.16,12.3,12.3,0,0,1,.37,3.73,16.1,16.1,0,0,0,0,3.4,33.35,33.35,0,0,1,.06,4.36c0,1.66,0,3.32.07,5,0,.6.25,1.3-.22,1.87a.25.25,0,0,0,0,.17,25.72,25.72,0,0,1,.09,4.56c0,.6.46.46.75.48a6.79,6.79,0,0,0,1.35-.06c1.43-.17,2.85.07,4.28,0,.81-.06.78,0,.89.83a12.37,12.37,0,0,1-.09,2.72c-.07.86-.52,1.19-1.35,1.18l-.88,0Zm-11-16.79c-.29-.3-.54-.23-.87,0Z"
          transform="translate(-31 -62.07)" style="fill:#edbb29"/>
    <path d="M169.41,221.76a1.54,1.54,0,0,1-.49-1.6c.16-.91-.06-1.82.06-2.72a7.13,7.13,0,0,0,.11-1.3,5.2,5.2,0,0,0-.24-1.91,2.19,2.19,0,0,1,0-1.34c.18-.81,0-1.62.17-2.42a1.2,1.2,0,0,1,1-.92c2.42.08,4.83,0,7.25,0,.67,0,1,.2.94.85,0,1.32-.07,2.64-.1,4,0,1.63.12,3.27.08,4.91a25.17,25.17,0,0,1-.05,2.6,7,7,0,0,0,.09,2.23,13.84,13.84,0,0,1,0,2.13c0,1,0,2,0,3.06,0,1.49,0,3-.06,4.47a14.55,14.55,0,0,1,0,1.62,3.93,3.93,0,0,0,.08,1.6.62.62,0,0,1-.66.76c-1.9-.33-3.81.1-5.71-.06a15.31,15.31,0,0,0-1.66,0,1,1,0,0,1-1.17-.85,8.22,8.22,0,0,1-.14-1.79c0-.61.08-1.22,0-1.84-.08-1.2,0-2.4-.08-3.61a17.14,17.14,0,0,1,.12-2.94,13.66,13.66,0,0,0-.14-3.72C168.72,222.22,168.78,222.1,169.41,221.76Z"
          transform="translate(-31 -62.07)" style="fill:#edbb29"/>
    <path d="M150.52,257.49a1.58,1.58,0,0,1-.45-1.57c.15-.89-.06-1.78.05-2.67a6.8,6.8,0,0,0,.1-1.27,5.14,5.14,0,0,0-.22-1.86,2.33,2.33,0,0,1,0-1.31c.17-.8,0-1.59.16-2.38a1.14,1.14,0,0,1,1-.9c2.24.08,4.48,0,6.71,0,.63,0,.88.2.88.83,0,1.3-.06,2.59-.09,3.88,0,1.6.1,3.21.07,4.81,0,.84.05,1.68,0,2.54a7.67,7.67,0,0,0,.08,2.18,13.3,13.3,0,0,1,0,2.09c0,1,0,2,0,3,0,1.46,0,2.92-.06,4.37a13.82,13.82,0,0,1,0,1.58,4.13,4.13,0,0,0,.07,1.57.6.6,0,0,1-.61.75c-1.76-.32-3.53.1-5.29-.06a13,13,0,0,0-1.53,0,1,1,0,0,1-1.1-.84,9.19,9.19,0,0,1-.12-1.75c0-.59.07-1.19,0-1.8-.08-1.17,0-2.35-.08-3.53a18.64,18.64,0,0,1,.11-2.88,13.9,13.9,0,0,0-.13-3.64C149.88,257.94,149.94,257.81,150.52,257.49Z"
          transform="translate(-31 -62.07)" style="fill:#edbb29"/>
    <path d="M155.92,251.33a1.31,1.31,0,0,0,1.36.4c.76-.13,1.54.06,2.3,0a5.9,5.9,0,0,1,1.1-.09,4.28,4.28,0,0,1,1.62.2,2,2,0,0,0,1.13,0c.69-.15,1.38,0,2.06-.15a1,1,0,0,0,.78-.87c-.07-2,0-4,0-6,0-.56-.18-.79-.72-.79-1.12,0-2.24.06-3.36.08-1.39,0-2.77-.09-4.16-.06a20.24,20.24,0,0,0-2.2,0,6.06,6.06,0,0,1-1.89-.07,11,11,0,0,0-1.81,0c-.87,0-1.73,0-2.59,0-1.27,0-2.53,0-3.79,0a12.53,12.53,0,0,0-1.37,0A3.4,3.4,0,0,1,143,244a.53.53,0,0,0-.65.55c.28,1.59-.09,3.18.05,4.76a12.71,12.71,0,0,1,0,1.38.87.87,0,0,0,.73,1,7,7,0,0,0,1.52.11c.51,0,1-.06,1.56,0,1,.07,2,0,3.06.07a14.83,14.83,0,0,0,2.48-.1,12,12,0,0,1,3.16.11C155.53,251.9,155.63,251.85,155.92,251.33Z"
          transform="translate(-31 -62.07)" style="fill:#edbb29"/>
    <path d="M126,257.49a1.56,1.56,0,0,1-.46-1.57c.15-.89-.06-1.78.06-2.67a7.75,7.75,0,0,0,.09-1.27,4.93,4.93,0,0,0-.22-1.86,2.33,2.33,0,0,1,0-1.31c.17-.8,0-1.59.16-2.38a1.14,1.14,0,0,1,1-.9c2.24.08,4.48,0,6.72,0,.62,0,.87.2.87.83,0,1.3-.06,2.59-.09,3.88,0,1.6.11,3.21.07,4.81,0,.84.05,1.68-.05,2.54a7.67,7.67,0,0,0,.08,2.18,13.3,13.3,0,0,1,0,2.09c0,1,0,2,0,3,0,1.46,0,2.92-.05,4.37,0,.53.06,1.07,0,1.58a3.94,3.94,0,0,0,.08,1.57.61.61,0,0,1-.62.75c-1.76-.32-3.53.1-5.29-.06a13,13,0,0,0-1.53,0,1,1,0,0,1-1.09-.84,8.44,8.44,0,0,1-.13-1.75c0-.59.08-1.19,0-1.8-.08-1.17,0-2.35-.08-3.53a18.64,18.64,0,0,1,.11-2.88,14.34,14.34,0,0,0-.12-3.64C125.37,257.94,125.43,257.81,126,257.49Z"
          transform="translate(-31 -62.07)" style="fill:#edbb29"/>
    <path d="M131.41,251.33a1.31,1.31,0,0,0,1.36.4c.76-.13,1.54.06,2.3,0a5.94,5.94,0,0,1,1.11-.09,4.25,4.25,0,0,1,1.61.2,2,2,0,0,0,1.13,0c.69-.15,1.38,0,2.06-.15a1,1,0,0,0,.78-.87c-.07-2,0-4,0-6,0-.56-.18-.79-.72-.79-1.12,0-2.24.06-3.36.08-1.38,0-2.77-.09-4.16-.06a20.24,20.24,0,0,0-2.2,0,6.06,6.06,0,0,1-1.89-.07,11,11,0,0,0-1.81,0c-.86,0-1.73,0-2.59,0-1.26,0-2.53,0-3.79,0a12.53,12.53,0,0,0-1.37,0,3.4,3.4,0,0,1-1.35-.07.53.53,0,0,0-.65.55c.28,1.59-.09,3.18.05,4.76a12.71,12.71,0,0,1,0,1.38.87.87,0,0,0,.72,1,7,7,0,0,0,1.52.11c.51,0,1-.06,1.56,0,1,.07,2,0,3.06.07a15,15,0,0,0,2.49-.1,11.9,11.9,0,0,1,3.15.11C131,251.9,131.13,251.85,131.41,251.33Z"
          transform="translate(-31 -62.07)" style="fill:#edbb29"/>
    <path d="M267.83,65.4c-.21.88-.45,1.75-.63,2.63-.07.34-.16.48-.53.46s-.64,0-.74-.47a15.52,15.52,0,0,0-.82-2.7c0,.83,0,1.67,0,2.5,0,.39,0,.68-.52.68s-.49-.3-.49-.66c0-1.32,0-2.64,0-4,0-.4.09-.51.49-.51,1.07,0,1.08,0,1.38,1,.19.69.36,1.39.58,2.27.2-.68.35-1.21.5-1.74.05-.18.08-.35.13-.53.31-1.11.31-1.1,1.46-1,.27,0,.35.11.35.35v4.44c0,.51-.38.28-.61.31s-.46,0-.45-.37c0-.9,0-1.79,0-2.68Z"
          transform="translate(-31 -62.07)" style="fill:#edbb29"/>
    <path d="M261,66.4c0-.54,0-1.08,0-1.62,0-.38-.11-.51-.47-.48-.16,0-.33,0-.48,0-.38,0-.54-.06-.53-.49s.14-.46.5-.45c1,0,2,0,3.06,0,.3,0,.48,0,.44.41s0,.55-.46.53c-.94,0-.94,0-.94.94s0,1.85,0,2.76c0,.56-.32.43-.62.46s-.57,0-.53-.46,0-1.08,0-1.62Z"
          transform="translate(-31 -62.07)" style="fill:#edbb29"/>
    <path d="M187.83,162a.32.32,0,0,1,.44.19c.08.17,0,.26-.12.35s-.37.28-.05.51c.08,0,0,.26.06.4a5.5,5.5,0,0,0,.13,1.39c.09.28.23.88-.42,1a.14.14,0,0,0-.1.23c.28.57,0,1-.26,1.52a3.51,3.51,0,0,0-.37,1.06c-.06.44-.53.54-.82.79-.13.1-.22.05-.15.32s-.25.6-.59.74a5.46,5.46,0,0,0-1.7,1,1.3,1.3,0,0,1-.77.28,24.47,24.47,0,0,1-3.1.3,13.7,13.7,0,0,0-2.3.17,12.06,12.06,0,0,1-1.58.09,8.4,8.4,0,0,0-1.66.08.77.77,0,0,1-.42,0c-1.09-.38-2.23,0-3.33-.2a.49.49,0,0,0-.24,0c-1.44.37-2.9-.11-4.34.08-1.27.17-2.54-.2-3.78,0s-2.32-.1-3.48,0c-.37,0-.52-.23-.57-.57a2.72,2.72,0,0,1-1.54.59c-.11,0-.67,0-.35-.53.05-.07-.11-.31-.2-.45s-.29-.45.1-.6c.07,0,.27-.14.1-.26-.37-.29-.15-.62-.08-.93s.1-.38-.06-.55-.49-.63-.21-1,.59.12.94.1c0-.51-.53-.49-.75-.77a1.06,1.06,0,0,1-.31-.88,7.25,7.25,0,0,0,0-2.13c0-.84.15-1.69.08-2.52a45.67,45.67,0,0,0-.18-5.1,4.61,4.61,0,0,1,.09-.88c0-2,.07-3.9,0-5.84a42.63,42.63,0,0,0,.07-4.38,8.24,8.24,0,0,1-.08-2.21c.21-1.42-.21-2.81,0-4.21a8.1,8.1,0,0,1,.13-.88,1.89,1.89,0,0,0,0-1.08,9.08,9.08,0,0,1-.07-1.49c-.06-.53,0-1-.58-1.29-.34-.16-.76-.32-.57-.94a.92.92,0,0,0-.52-1c-.27-.07-.31-.34-.31-.59a12.34,12.34,0,0,0-.07-2.66c-.21-.93.33-1.81-.1-2.68-.14-.28.19-.48.19-.78,0-.86,0-1.71,0-2.57a.58.58,0,0,1,.27-.56c.08,0,.21-.11.22-.18.12-1,.91-.71,1.47-.67.35,0,.42,0,.34-.32s.22-.43.6-.29c-.15-.34-.34-.53-.08-.82s0-.5-.24-.66a1.28,1.28,0,0,1-.6-1.42,5.7,5.7,0,0,0,.06-2c-.08-.42.19-.8.14-1.22a2.77,2.77,0,0,0-.07-.7,1.87,1.87,0,0,1-.07-.22c.58-.08,0-.4.11-.6s-.17-.54.25-.66a.35.35,0,0,0,.13-.31c-.2-.57,0-1.2-.34-1.73a1.5,1.5,0,0,1-.21-.68c-.11-2.45-.09-4.91-.08-7.37,0-1.54,0-3.08,0-4.62a23.31,23.31,0,0,0,0-4.34c-.13-.94.37-1.86,0-2.74-.28-.65,0-1.23.07-1.83a.69.69,0,0,1,.8-.65,14.24,14.24,0,0,0,3.13-.07c1.5,0,3,.22,4.5.12a5.21,5.21,0,0,1,2.3.17,3,3,0,0,0,2.05-.23c.3-.13.43.11.67.1a40.48,40.48,0,0,1,4.67-.08,7.83,7.83,0,0,1,2.51.07c.4.17.86-.17,1.3,0,1.22.51,2.42,0,3.62-.13.14,0,.37,0,.4,0,.27.59.71.2,1.09.21a2.63,2.63,0,0,1,1.56.38c.51.4,1.23.39,1.68.92a10.93,10.93,0,0,1,1,1.34s.06.07.06.1c-.13.64.39,1.19.25,1.82a5.64,5.64,0,0,0,0,1.36,22.77,22.77,0,0,1,0,3.09,17.16,17.16,0,0,0-.06,2.87,38.36,38.36,0,0,1-.11,5.87c.47.67-.25,1.42.15,2.14.2.36-.07.84-.28,1.19-.33.53,0,1.25-.56,1.74-.1.08.26.68.39,1s.39.6.09,1,0,.76,0,1.14a4,4,0,0,1-.1,1.19,1,1,0,0,0,.1.91,5.87,5.87,0,0,1,.38,3,2.55,2.55,0,0,1-.44,1.6c-.27.35,0,1-.43,1.48a.11.11,0,0,0,0,.11c.59.68-.12,1.05-.35,1.53,0,.11-.22.2-.21.29,0,.61-.47.9-.74,1.34a1.27,1.27,0,0,1-1.17.64c-.18,0-.41-.07-.5.2s.08.46.27.6c.46.35.94.67,1.41,1,.1.07.35.15.21.28-.51.46,0,.56.24.76a2.26,2.26,0,0,1,.62.78,1.49,1.49,0,0,0,.85.78,1.93,1.93,0,0,1,.64,1.72c-.07.17-.32,0-.4.24.69.07.66.62.66,1.09,0,1-.25,2.06-.18,3.11s.15,2.37.22,3.56a1.06,1.06,0,0,1,0,.47,5.65,5.65,0,0,0,0,2.42c0,.71-.06,1.43-.06,2.15,0,1.41,0,2.82.05,4.23a2,2,0,0,1-.1.64,1.15,1.15,0,0,0-.08.65,9.53,9.53,0,0,1,.07,2.77c.1,1.42-.12,2.84,0,4.25a23.41,23.41,0,0,1-.08,2.52c0,.37-.55.42-.35.81-.11,0-.11.13,0,.17S187.82,162.11,187.83,162Zm-11.67-57.67c-.65-.1-.47.42-.61.74.77.15.55-.4.6-.75,0,0,.11,0,0-.09Zm-.4,48.75c.15-.49-.4-.91-.07-1.4-.55.11-.77-.15-.74-.58s.05-1.09.05-1.6a25.47,25.47,0,0,1-.22-2.75c.18-1.84.08-3.68.11-5.51,0-.28.05-.55,0-.83a31.19,31.19,0,0,1,0-4.1,8.47,8.47,0,0,0-.45-2.27c0,.8-.6.11-.86.36s-.62.6-.8-.12c-.32.28-.56.59-1,.57-.05-.22.09-.32.18-.45s.27-.25.17-.46c-1.07.61-1.07.61-1.2-.15a2.3,2.3,0,0,1-.92.47,1.58,1.58,0,0,0-1.24.82c-.13.28.15.5,0,.74a2.12,2.12,0,0,0-.21,1.67,8.41,8.41,0,0,1,.1,1.5,16.06,16.06,0,0,0,0,4,4.47,4.47,0,0,1,0,.89,24.66,24.66,0,0,0,0,2.72,4.82,4.82,0,0,1-.11,1.48,2.39,2.39,0,0,0,.07,1.38c.09.21.29.48.22.65a7.83,7.83,0,0,0-.11,2.55,20.9,20.9,0,0,0-.16,2.61c.05.54.27,1.05,0,1.58s0,.9-.35,1.28c-.13.13-.17.59-.06.68.51.45,0,.71-.14,1s-.11.31.1.37c.79.25,1.3.94,2.08,1.27,0-.33.22-.44.49-.58s.52-.26.62.24c0,.15.36.2.59.09a2.26,2.26,0,0,1,.59-.28c.31,0,.74-.24.74.38a.22.22,0,0,0,.31.2c.4-.12.8-.23,1.19-.37.19-.06.38-.16.34-.42a.77.77,0,0,1,.45-.78c.48-.3.2-.65,0-.72-.65-.18-.49-.62-.49-1.06a42.7,42.7,0,0,0,0-4.8.68.68,0,0,1,.34-.71c.33-.12.25.26.34.43s0,.47,0,.7,0,.22.15.19.16-.18.1-.23C175.65,153.56,175.8,153.32,175.76,153.11Zm-7.07-32.33c0,.12,0,.24,0,.36s-.07.77.2.71c.58-.14,1,.56,1.6.18.21-.13.36,0,.42.26.13.49.39.58.82.26s.47-.32.71.16c0,.07.11.09.12.07.33-.38.75.07,1.11-.14A10.13,10.13,0,0,1,175,122a.41.41,0,0,0,.3-.59,9.75,9.75,0,0,1-.24-1.53c-.09-.73,0-1.48-.14-2.2a15.46,15.46,0,0,1,0-3.19,10.36,10.36,0,0,0,0-1.85c-.11-.59.35-1.07.21-1.66a3.08,3.08,0,0,1,.09-1.31c0-.19.21-.35.12-.57a5.39,5.39,0,0,1-.12-3.23c.15-.66-.25-1.31-.11-2a1.75,1.75,0,0,0-.12-1,.73.73,0,0,1,.19-.87.8.8,0,0,0,.21-.82,1.79,1.79,0,0,0-1.8-1.35,7.77,7.77,0,0,0-1.36.16c-.39,0-.81-.4-1.16.09,0,0-.09,0-.12,0-.45-.28-.93-.07-1.4-.09s-.7.28-.73.79a16.38,16.38,0,0,0,.07,1.72,39.06,39.06,0,0,1-.26,4.45,23.46,23.46,0,0,0-.07,4.74,1.21,1.21,0,0,1-.26.83c-.05.08-.13.18-.23.09s-.19-.3-.37-.14,0,.32.07.49a.66.66,0,0,0,.51.53c.36.12.59.22.16.56a.35.35,0,0,0-.09.49c.37.47.24,1,.35,1.55.07.31-.24.53-.15.8C168.91,118.2,168.43,119.51,168.69,120.78Zm8.34,32c-.15.31-.3.6,0,.88.08.07.1.23,0,.26-.64.17-.17.51-.1.76s.47.68.51,1.11c0,.21,0,.43,0,.65s.05.32.28.31.26-.13.18-.32a.18.18,0,0,1,0-.21c.25-.26.23-.24,0-.5a1.76,1.76,0,0,1-.5-1.88A.81.81,0,0,0,177,152.76Zm-21.65-29.83v-.52c0-.1-.06-.14-.15-.15s-.21,0-.18.1c.17.45-.22.47-.45.6a.39.39,0,0,0-.19.45c0,.26.24.13.38.14C155.36,123.6,155.46,123.28,155.38,122.93Zm30.74-30.14c.14.25.24.48.53.54,0-.19,0-.37.17-.5.37-.28.18-.54,0-.79-.06-.06-.12-.2-.23-.06s-.17.19-.09.26C186.94,92.73,186.5,92.73,186.12,92.79Zm-29,76.65c.12-.2,0-.41,0-.63a.14.14,0,0,0-.19-.15c-.1,0-.19.1-.11.21a.43.43,0,0,1,0,.5c-.44.45.07.75.14,1.11,0,.19.17.09.26,0s.32-.22.12-.29C156.92,170.05,157.28,169.69,157.12,169.44Zm.22-51.83c0-.22-.05-.44-.1-.65s-.1-.43-.29-.39,0,.27,0,.41a4,4,0,0,1-.12.58.53.53,0,0,0,.1.5c.06.1.14,0,.19,0S157.38,117.82,157.34,117.61Zm29.51,41c.22-.06.35-.1.39-.34.09-.61-.45-.67-.74-1C186.33,157.88,187,158.14,186.85,158.64ZM175.7,156.2c.18-.59.56-1.19,0-1.74C175.15,155,175.89,155.62,175.7,156.2Zm-18.91-13c0,.45-.27.86.11,1.17.2.16.38-.16.41-.27C157.44,143.7,157.09,143.51,156.79,143.21Zm17.32-20c.28.15.59,0,.81.2s.19,0,.24-.06,0-.15-.1-.22C174.73,122.66,174.44,122.82,174.11,123.2Zm-17-10.68c-.14-.53-.37-1-.18-1.45,0,0-.05-.14-.09-.2s-.14,0-.15,0,0,.18,0,.21c.31.24.15.52.08.78S156.83,112.32,157.15,112.52ZM184.22,90a.81.81,0,0,0-.73-.26c-.16,0-.32,0-.31.26s.14.27.31.26A1,1,0,0,0,184.22,90Zm-26.51,25.74c.08.18.07.5.26.49a2.14,2.14,0,0,0,.71-.32s0-.21-.06-.15c-.3.19-.34-.15-.5-.23s-.17-.22-.29-.11S157.75,115.61,157.71,115.72Zm28.5,47c-.41-.24-.22-.82-.62-1C185.67,162.1,185.66,162.57,186.21,162.73ZM168.91,134c-.08-.19-.24-.16-.37-.13s-.39.09-.4.29.18.2.31.17A.71.71,0,0,0,168.91,134Z"
          transform="translate(-31 -62.07)" style="fill:#edbb29"/>
    <path d="M112.07,98.8c.35-.46.11-1,0-1.41a13.94,13.94,0,0,1,0-2.74,6.36,6.36,0,0,0-.08-2s0-.1,0-.11c.55-.36.08-.76,0-1.13a1.72,1.72,0,0,1,.06-1.12c0-.07.08-.16.06-.22-.31-.89.59-1,.94-1.43.16-.2.36,0,.55,0,.49.13.91.51,1.53.16.23-.14.75.25,1.19.24s.9.29,1.25-.26c.09-.14.53-.17.57,0,.19.83.81.4.94.21.51-.77,1.31-.11,1.87-.5a1.58,1.58,0,0,0,1.45.53c.16,0,0,.33.17.46a1.29,1.29,0,0,1,1.89-.41c.25.18.66-.05.81.35,0,.13.16.27.07.38s-.23.06-.33,0-.59-.08-.73-.25c-.37-.46-.9-.11-1.32-.33-.08,0-.25.2-.16.4a.58.58,0,0,0,1,.21c.18.14.16.35.2.54l.46-.21c.29-.13.36-.08.44.27A22.86,22.86,0,0,1,125,95c0,.74.14,1.52.12,2.26a11,11,0,0,1,0,1.83c-.25,1.18.15,2.32,0,3.48a13.34,13.34,0,0,0,0,1.9,3.43,3.43,0,0,1,0,1.32,5.52,5.52,0,0,0-.08,1.47,16.13,16.13,0,0,0,.14,3.11c0,.24.11.52-.21.68-.16.09,0,.26,0,.38a3.53,3.53,0,0,1,.2,1.64,10.92,10.92,0,0,0,.28,2.73,6.8,6.8,0,0,1-.12,2.11,5.67,5.67,0,0,0,0,1.54,20,20,0,0,1,.06,2.79c.12,1.69,0,3.39.09,5.09a16.38,16.38,0,0,1-.07,1.72c0,.59.07,1.2,0,1.81a28.37,28.37,0,0,0,.08,3.57,4.88,4.88,0,0,1-.37,2.18,1.47,1.47,0,0,0,0,1.33,2.45,2.45,0,0,1,.2,1.27,32.05,32.05,0,0,0,.14,3.53c0,.76-.23,1.5-.11,2.26a12,12,0,0,1-.08,3.38c-.11.88-.16,1.8-.26,2.7-.06.56-.34,1.09-.13,1.67s-.06,1.07.22,1.57a.61.61,0,0,1-.17.72c-.28.29-.39.48,0,.72.13.07.34.26.12.49h0c-.11-.14-.2-.29-.47-.24.27.74-.23,1.5.09,2.26.11.25-.13.47-.14.75,0,.68.61.8.89,1.2a4.72,4.72,0,0,0,.56.53q.56.53.93-.15c0-.09.1-.25.14-.25.53,0,.92-.53,1.32-.48a10.87,10.87,0,0,1,1.81.11.94.94,0,0,0,.82-.07c.3-.2.55-.2.65.16s-.15.5-.44.61a.47.47,0,0,1-.17,0c-.2,0-.22.16-.24.29s.17.17.29.2c.38.09.56-.25.84-.39a.43.43,0,0,1,.34-.08c-.09.34-.76.5-.38.86s.49-.28.77-.39a1.33,1.33,0,0,0,.93-1.41,2,2,0,0,1,.09-.65,18.45,18.45,0,0,0,.14-3.06,21.21,21.21,0,0,1,0-2.88,8,8,0,0,0,.14-2.57,3,3,0,0,1,.11-.65c0-.17.13-.41.05-.52-.4-.58-.08-1.25-.25-1.86-.09-.33.05-.6.51-.6-.21-.11-.41-.11-.53-.29s-.21-.47,0-.66.35,0,.51.14.13.36.33.17.38-.24.2-.53a3.2,3.2,0,0,1-.26-.6c-.07-.17-.1-.35-.34-.11s-.4.07-.48-.19a4,4,0,0,1,0-2c.05-.26.11-.25.56.06a4.23,4.23,0,0,0,0-2.7c-.06-.23-.21-.45.17-.53.11,0,.23-.18.12-.28-.61-.58-.17-1.25-.19-1.87a12.43,12.43,0,0,0-.12-1.93,3.58,3.58,0,0,1,.1-2.69.21.21,0,0,0,0-.17c-.44-.71,0-1.55-.33-2.28a.66.66,0,0,1,.08-.52,1.71,1.71,0,0,0,0-1.05,7.38,7.38,0,0,1-.21-3.46c.06-.39-.19-.68-.13-1,.2-1-.06-2.12.32-3.13a.57.57,0,0,0-.07-.46,1.41,1.41,0,0,1-.1-.7c.13-1-.19-2,0-2.92s-.24-1.69.1-2.51a1,1,0,0,0,0-.54,10.94,10.94,0,0,1,0-2.06A23.75,23.75,0,0,0,134,109a11,11,0,0,1,0-2.15c0-1.47.05-2.94.13-4.41,0-.74-.25-1.51-.21-2.29a7.25,7.25,0,0,0-.06-2.13,1.54,1.54,0,0,1,.18-1.16.72.72,0,0,0,.05-.52,13.82,13.82,0,0,1-.1-3,10.32,10.32,0,0,1,.33-1.91c.07-.19-.11-.33-.13-.51s-.18-.33,0-.41a.34.34,0,0,1,.45.19,1.62,1.62,0,0,0,.75.12s.08-.08.07-.09c-.5-.53.44-.62.32-1h0c.1,0,.15-.23.28-.08s0,.22.18.16a4.08,4.08,0,0,1,2.92,0c.06,0,.14,0,.18,0,.65-.34,1.34.08,2-.11a1.51,1.51,0,0,1,.6,0,7.48,7.48,0,0,0,2.79-.06c.43-.08.37.16.36.41h0c-.3-.17-.36.18-.55.25-.39.13-.26.24-.05.51s.72.22,1.07.32.66.1,1,.26a.5.5,0,0,1,.12.87.32.32,0,0,0,.3.09c.14,0,.32-.06.39.07s-.22.22-.22.25c0,.44-.59.69-.34,1.18.1.19,0,.39,0,.59s-.31.63.27.73c.18,0,.17.42.22.65a1.9,1.9,0,0,1-.29,1.25c-.05.1-.27.25,0,.35s.27.14.18.31-.21.27-.39.17-.29.07-.33.24a2.82,2.82,0,0,0,.45,2,4.65,4.65,0,0,1,.56,2,2.1,2.1,0,0,1-.15,1,3.26,3.26,0,0,0,0,1.83c.08.88-.11,1.73,0,2.6a7.64,7.64,0,0,1,.06,2.08,14.44,14.44,0,0,0,.07,2.94c0,1.16-.17,2.3-.09,3.45a1.05,1.05,0,0,0,.15.43c.2.38.37.76.05,1.18a.48.48,0,0,0-.08.39c.34.55,0,1.17.18,1.73a.22.22,0,0,1,0,.11,7.32,7.32,0,0,0,0,2.47c.14,2-.08,4,0,5.93a6.7,6.7,0,0,1-.2,2.13.58.58,0,0,0,0,.41,6.76,6.76,0,0,1,.3,2.68c.07,1.1-.19,2.16,0,3.28a10,10,0,0,1-.15,4.15c-.45,1.44,0,2.81-.23,4.22a32.13,32.13,0,0,0-.07,5,4.37,4.37,0,0,1-.09,1c-.2.8.28,1.57,0,2.4a19.73,19.73,0,0,0-.15,3.16,31,31,0,0,0,.15,3.62c0,1.81-.52,3.59-.37,5.39a5.29,5.29,0,0,1-.39,2.25,6,6,0,0,1-2.48,3.26,7.74,7.74,0,0,1-2.9,1.09,9.45,9.45,0,0,0-1.66.22c-.44.15-.47-.31-.6-.64l-.08.27c-.06.2-.1.46-.29.49s-.32-.21-.4-.39-.26-.29-.51-.21a7,7,0,0,1-3.17.44c-.16,0-.35,0-.47-.06-.6-.35-1.2-.09-1.8,0-.1,0-.29.16-.26,0,.12-.7-.36-.32-.55-.29-1.4.22-2.81.27-4.23.37s-2.81-.23-4.19.23c-.1,0-.23,0-.19-.13.19-.52-.16-.31-.36-.27a8.45,8.45,0,0,1-2.43.35,12.74,12.74,0,0,0-2.8-.14c-1.51.27-2.18-.81-3.14-1.45a3.15,3.15,0,0,1-1.18-1.37c-.12-.27-.27-.5-.12-.78s0-.31-.07-.45a11.17,11.17,0,0,1-.76-5.4,21.33,21.33,0,0,0-.07-3.57,16.32,16.32,0,0,1,.07-3.63c.08-.43-.15-.78-.13-1.18,0-.66,0-1.33.07-2a23.16,23.16,0,0,0,.08-3.11,4.37,4.37,0,0,1,.39-1.86c.08-.18.2-.38.12-.57-.48-1.16.09-2.34-.07-3.51a2.34,2.34,0,0,0-.09-.46,2.76,2.76,0,0,1,0-2.2c.12-.24-.08-.46-.06-.7.05-.61-.3-1.28.26-1.82,0,0,0-.1,0-.15a6.28,6.28,0,0,1-.13-4.06.65.65,0,0,0,0-.24,12.77,12.77,0,0,1-.08-3.7c.1-1,0-2.05,0-3.07a12,12,0,0,0-.08-3.78.28.28,0,0,1,0-.18c.36-.76,0-1.54.06-2.29.07-.94-.12-1.85-.06-2.78a7.67,7.67,0,0,1,.25-2.29.39.39,0,0,0,0-.24,9.05,9.05,0,0,1-.12-2.89,14.15,14.15,0,0,0-.16-2.75,4.19,4.19,0,0,1,.21-1.63A12.54,12.54,0,0,0,112,106a17.67,17.67,0,0,1,.08-1.78c0-.39-.33-.76,0-1.15s0-.58,0-.87l.18-.37h.13c.23.11.46-.15.71,0l-.34.58a.9.9,0,0,1,.25,0c.46.21.58.12.56-.44,0-.33-.07-.66-.09-1,0-.11.07-.25-.09-.3s-.24.07-.28.21a.84.84,0,0,1-.69.66c-.14-.08,0-.32-.25-.34l-.19-.48a.23.23,0,0,0,0-.27l0-.17A6.28,6.28,0,0,0,112.07,98.8Zm1.5,5.59c-.75.1-1,.37-.75,1.08a3.07,3.07,0,0,1,0,1.7.57.57,0,0,0,.14.62.61.61,0,0,0,.28-.61,10.19,10.19,0,0,1,0-2C113.25,104.86,113.22,104.58,113.57,104.39Zm21.64,13.23a12.25,12.25,0,0,0-.07,2.9,2.11,2.11,0,0,0,0-.56c0-.11,0-.28.16-.23.42.1.29-.1.15-.27a.93.93,0,0,1-.15-1C135.56,118.08,135.35,117.88,135.21,117.62Zm-16-28.09c.65.75,1.68.86,2.07.25A4.8,4.8,0,0,1,119.26,89.53ZM135,114.77a2.46,2.46,0,0,0,.2-2.37A11.55,11.55,0,0,1,135,114.77Zm.17-5.63c-.13,0-.21,0-.21.11,0,.31.23.66-.12.93.14.1.13.48.37.34s0-.7.27-1c.09-.11,0-.22-.14-.28Zm-20.84-7.6a1,1,0,0,0,.63.86c.11.06,0,.41.35.29.11,0,.29-.11.26-.21a.59.59,0,0,0-.44-.45A1.68,1.68,0,0,1,114.3,101.54Zm-1.25,9.67c-.69.42-.26.92-.17,1.48C113.48,112.2,112.6,111.66,113.05,111.21Zm33.33-8.58c.17-.21.31-.35.42-.51s-.4-.34-.12-.61c-.07,0-.14.1-.21.1-.3,0-.19.22-.18.38S146.34,102.36,146.38,102.63ZM135,105.91c0,.16.16.31.15.54s.37.31.45.31c.31,0,0-.21,0-.34s.06-.34.1-.54C135.48,106,135.19,106.53,135,105.91Zm-.08,36.48v1.17C135.38,143.17,135.29,142.8,134.93,142.39Z"
          transform="translate(-31 -62.07)" style="fill:#edbb29"/>
    <path d="M196.76,116.8c-.13,0-.32.15-.34-.15s-.09-.47-.09-.7a21.9,21.9,0,0,0-.07-4.36,3,3,0,0,1,.09-.83c0-.14.09-.29.05-.41-.42-1.23-.12-2.52-.36-3.78-.43-2.31,0-4.64,0-7a6.6,6.6,0,0,0,0-1.72c-.09-.36.23-.63.23-1a13.79,13.79,0,0,1,.37-3.67,3.37,3.37,0,0,1,.68-1.38c.65-.8,1.36-1.55,2-2.34a.49.49,0,0,1,.49-.23,1.08,1.08,0,0,0,.79-.37,1.1,1.1,0,0,1,.91-.39c.93.19,1.8-.28,2.75-.15,1.18.16,2.4,0,3.59.06s2.45.08,3.66.08a35.14,35.14,0,0,1,4.59.09s0,0,.06,0c.61-.42,1.29.05,1.92-.16.24-.08.55-.16.75.17s.36,0,.47,0a7.35,7.35,0,0,1,3.29-.24c1.18.08,2.28.62,3.46.71.16,0,.24.13.34.23s.2.27.34.33a4.15,4.15,0,0,1,2,2.3,4.2,4.2,0,0,1,.12,2.84c-.1.48,0,1-.05,1.48a2.18,2.18,0,0,1,0,.56c-.2.56.05,1.13,0,1.69a3.82,3.82,0,0,0,.23,2.09.06.06,0,0,1,0,.06c-.61,1.27.14,2.65-.34,3.93a.29.29,0,0,0,0,.18c.47,1.07-.16,2.14,0,3.22a.32.32,0,0,1-.21.43c-.11,0-.23.12-.17.26.27.66-.23.45-.52.47a1.15,1.15,0,0,1-.35-.07,2.22,2.22,0,0,0-1.5,0,4,4,0,0,1-1.95.1,11.48,11.48,0,0,0-4.05,0,.72.72,0,0,1-.71-.16c-.31-.28-.75-.23-1.11-.31s-.46-.3-.44-.61.18-.57,0-.93c.4,0,.63.35,1,.21.17-.06.22-.14.2-.29s-.14-.08-.24-.1-.55,0-.37-.37c.08-.18-.07-.18-.14-.25a.8.8,0,0,1-.22-.92,2.23,2.23,0,0,0-.05-1.59,2,2,0,0,1,0-1.28c.08-.29.24-.56-.1-.79-.09-.07,0-.16,0-.26.51-.85.16-1.58-.78-1.66-.19,0-.42-.24-.7-.3a1.33,1.33,0,0,0-1,.11A2.31,2.31,0,0,1,214,100a9.43,9.43,0,0,1-3.17-.2,2.09,2.09,0,0,0-1.48.35,1,1,0,0,0-.39,1.22,6,6,0,0,0,.49,1.86,1.15,1.15,0,0,1,.09.94,15.75,15.75,0,0,0-.05,3.82c0,1.31.1,2.62,0,3.93a14.32,14.32,0,0,1,0,2.27c0,.12,0,.27-.07.35-.28.33-.17.6,0,.9s.19,1,.2,1.46c0,1.23,0,2.46.17,3.69a2.4,2.4,0,0,1-.1,1.06,1,1,0,0,0,0,.64c.24.69-.07,1.42.24,2.1a.87.87,0,0,1,0,.59,7.43,7.43,0,0,0-.22,2.78,6.94,6.94,0,0,0,.27,1.88.27.27,0,0,1,0,.12,9.67,9.67,0,0,0-.19,2.68,3,3,0,0,0,0,1.24c.3,1.15-.16,2.29-.07,3.44a4.85,4.85,0,0,1,0,1.7c-.28,1,.21,2.08,0,3.13a1.54,1.54,0,0,0,.07.94.61.61,0,0,1-.12.65,1.12,1.12,0,0,0,0,1.12,2,2,0,0,1,.18,1.08c0,.61,0,1.23,0,1.85a18.49,18.49,0,0,1,0,3.07c-.16,1,.09,1.89,0,2.81-.09,1.11.11,2.22,0,3.32,0,0,0,.05,0,.06-.66.42-.13,1-.19,1.49a1.6,1.6,0,0,1-.57,1.2.53.53,0,0,0-.2.69c.12.26.36,0,.52.07.4.15.94-.16,1.23.37a.17.17,0,0,0,.15.08c.47-.19.93-.34,1.32.15.48-.38,1.29.1,1.59-.66.23.1,0,.39.23.44s.15-.36.39-.34.06.16,0,.26c-.1.34,0,.51.34.29a2.19,2.19,0,0,1,1.28-.19c.37,0,.4.16.24.44l-.09.09c.07.1.11,0,.16,0,.47.1.72,0,.47-.53,0-.1,0-.24.14-.19.49.17.44-.23.48-.46a15.4,15.4,0,0,1,.37-2.34c.08-.24-.09-.24-.22-.23-.62.06-.58-.39-.42-.69a.6.6,0,0,0,0-.64,1.41,1.41,0,0,1,0-1c.16-1-.42-1.92,0-2.88a.5.5,0,0,0-.07-.51.9.9,0,0,1-.09-.64,5.54,5.54,0,0,0,0-2,4.79,4.79,0,0,1,0-1.73,2.65,2.65,0,0,0,0-1c0-.09-.05-.27,0-.28.89-.35.13-.92,0-1.23a2.81,2.81,0,0,1,0-1.62,5.12,5.12,0,0,0,.24-1.46,9,9,0,0,0-.24-1.76c0-.06-.07-.12-.06-.17.21-1.07-.06-2.15.07-3.2a6.1,6.1,0,0,0-.41-2.52.29.29,0,0,0-.51-.14c-.13.12-.27.21-.41.08s.16-.24.11-.36a9.59,9.59,0,0,1-1.63-.83c-.09,0-.21-.23-.18-.28.38-.67-.19-1.41.19-2.07a.22.22,0,0,0,0-.16,1.6,1.6,0,0,1-.11-1.5c.18-.91-.22-1.84.08-2.72.17-.51-.18-1.09.24-1.56a.16.16,0,0,0,0-.15c-.53-.91.32-1.51.5-2.26,0-.18.31-.27.52-.21s.06.44.27.67c.33-.7,1-.6,1.56-.58a2.25,2.25,0,0,0,1.17-.15c.33-.17.5,0,.64.31s.34.14.44.07a2.48,2.48,0,0,1,2-.3,14.3,14.3,0,0,0,2.77,0c1.46-.19,3,.28,4.37-.27.21-.08.26,0,.24.25a1.75,1.75,0,0,0,.68,1.72.52.52,0,0,1,.2.42c-.09.71.19,1.44-.07,2.14-.07.18,0,.31,0,.46s.12.37.08.53c-.37,1.57.11,3.13,0,4.69a37.87,37.87,0,0,0-.18,4.51c.17,2.62,0,5.23.09,7.84,0,1.89-.1,3.78-.11,5.67,0,.93.14,1.86.14,2.79a13,13,0,0,1-.3,2.83,3.18,3.18,0,0,0,.2,1.71,8.06,8.06,0,0,1,0,2.5,2,2,0,0,0,.1.87c.28.66.27.66-.4.93a4.25,4.25,0,0,1,.36,2.76c0,.1-.08.18,0,.32a2.94,2.94,0,0,1-.28,2.3.74.74,0,0,0-.08.41,3.1,3.1,0,0,1-1.19,2.49,14.3,14.3,0,0,1-1.58,1.53,5.91,5.91,0,0,1-1.57.6,9.22,9.22,0,0,1-2.92.67c-.59,0-1.19.05-1.79.05-.3,0-.63,0-.82-.33,0-.07-.14-.18-.25-.12-1,.57-2.23.14-3.29.52-.09,0-.23.06-.29,0-.79-.64-1.6-.09-2.4-.07-.1,0-.23.07-.29,0-1.15-.62-2.41,0-3.59-.32-.35-.1-.79.33-1.15.17a5,5,0,0,0-1.81-.09c-.64,0-1.28.05-1.91.06a8,8,0,0,1-2.32-.24,11.76,11.76,0,0,1-1.73-.59,5.1,5.1,0,0,1-2.23-1.87,21.27,21.27,0,0,1-1.22-1.86s-.07-.11-.06-.16c.22-1-.52-1.94-.4-3,0-.32.3-.77-.24-1a.87.87,0,0,1,.07-.27,3.51,3.51,0,0,0,.11-1.95,4.31,4.31,0,0,1-.08-1,1.88,1.88,0,0,0-.1-1.26.24.24,0,0,1,0-.18c.64-1.21,0-2.49.21-3.73.17-1,0-2,.18-3,.07-.41-.19-.85-.21-1.28a26.77,26.77,0,0,1-.06-3.69,15.25,15.25,0,0,0,.21-1.8c0-.93-.09-1.86-.17-2.79-.12-1.17-.47-2.4.08-3.58a1.21,1.21,0,0,0,0-.47,7.93,7.93,0,0,1,.29-3.05,6.05,6.05,0,0,0-.14-2.92,5.72,5.72,0,0,1,0-1.89,4.2,4.2,0,0,0,0-1.12,1.54,1.54,0,0,1,.14-1,2.57,2.57,0,0,0,.19-2.47c-.07-.14-.18-.13-.28-.17s-.14-.22,0-.24c.54-.08.32-.36.19-.63s.06-.35.08-.52.19-.32-.12-.48-.15-.44.08-.64.3,0,.22-.2c-.35-.75,0-1.61-.37-2.35a.33.33,0,0,1,0-.24c.22-.51-.06-.93-.2-1.39a.9.9,0,0,1-.05-.7,1.3,1.3,0,0,0,0-1c-.07-.25-.11-.52.29-.57.25,0,.24-.23.2-.42.09,0,.1-.09.08-.17s0,0-.06-.06Zm21.91,39.35.65.09c.15,0,.22-.06.23-.2s0-.28-.07-.25c-.31.07-.17-.14-.24-.27a15.71,15.71,0,0,1-.72-1.61c-.29.23.3.81-.36.71-.48-.07-.4.19-.37.43.1.73.14,1.46.31,2.18.08.36.2.75-.14,1.07s-.09.58.37.82c-.21-.48.09-.84.07-1.11-.07-.83.24-1.07,1-1,0,0,0,0,.05-.07Zm-2.31,6.15c-.29,0-.75.23-.52-.45.08-.26-.13-.49-.48-.42l-.61.1c-.06.21.57,0,.16.36-.16.13-.46.17-.31.46a3.67,3.67,0,0,1,.19.62.12.12,0,0,0,.2,0C215.36,162.6,216.06,162.9,216.36,162.3ZM227.58,94c-.45.35-.79.57-.65,1,.21.67.08,1.49.78,2,.19.13-.08.28.07.38.15-.58.14-.66-.1-1.08s-.32-.7,0-1c0,0,0-.13,0-.17C228,94.65,227.4,94.47,227.58,94Zm-.19,65.53c0,.3,0,.56-.06.82a.55.55,0,0,0,0,.18c0,.3.16.55-.24.79s0,.88.36,1c-.1-.15-.37-.21-.21-.43a.22.22,0,0,1,.31-.07c.15.12.09.25,0,.42s-.1.3.29.45A16.74,16.74,0,0,0,227.39,159.51Zm-1-36.21h.41c.12,0,.26,0,.3-.13s0-.17-.08-.19-.21-.22-.37-.13c-.45.24-.95,0-1.41.14-.06,0-.2-.16-.3,0s0,.27,0,.4.19.18.29.09C225.64,123.17,226,123.33,226.41,123.3Zm1.11,43c0,.28-.06.49,0,.58.34.39.19.82.11,1.23s.36.4.49.64c0,0,.21,0,.15-.16C227.93,167.89,228.14,167,227.52,166.29Zm-18.71-17.41a1.51,1.51,0,0,0-.2.17s0,.1,0,.15.1,0,.1,0c.07-.22.27-.58.07-.63-.41-.1-.47-.34-.53-.66,0-.1-.07-.19-.2-.17a.15.15,0,0,0-.11.23c.18.26,0,.82.61.73C208.7,148.69,208.8,148.72,208.81,148.88Zm18.77-23.19c-.1-.38-.22-.63-.52-.73-.14,0-.26-.23-.41-.12s-.09.21-.09.33.2.2.35.22A1,1,0,0,1,227.58,125.69Zm-4.81-36.17c-.08-.14-.11-.3-.2-.34-.37-.18-.79.09-1.17-.07a.26.26,0,0,0-.08.13.11.11,0,0,0,.18.08c.25-.22.39,0,.57.12A.82.82,0,0,0,222.77,89.52ZM199.5,91.28c.31,0,.44-.23.63-.39s.08-.27,0-.39-.31-.13-.38.06S199.45,91,199.5,91.28Zm28.07,1.49c-.1-.2-.15-.42-.27-.49s-.16-.26-.16-.44-.19-.1-.31-.1a.31.31,0,0,0-.13.06,8.39,8.39,0,0,0,.33.88C227.13,92.91,227.32,92.82,227.57,92.77ZM227,126c.23.4,0,.92.33,1.37A1.26,1.26,0,0,0,227,126Zm-.76-35c.15,0,.39,0,.33-.2s-.22-.42-.35-.43-.37.24-.38.43S226.1,91,226.24,91Zm.11,6.79c0,.38.18.64.09,1a.22.22,0,0,0,.23.27.23.23,0,0,0,.18-.36A3,3,0,0,0,226.35,97.81ZM215,123.88c-.15.4.11.72.15,1.18A1,1,0,0,0,215,123.88Zm13.79,41.55c0-.14,0-.21,0-.29l.09-.52c0-.2-.1-.37-.22-.18a.86.86,0,0,0,0,.89S228.66,165.36,228.74,165.43ZM198.8,92.07c.27,0,.51,0,.62-.3s-.08-.15-.17-.15Q198.77,91.58,198.8,92.07Zm-1,1.93c-.17-.1-.15-.47-.46-.34-.1,0-.23.18-.18.28C197.36,94.2,197.62,94,197.85,94Zm18.85,4.51.64.18a.64.64,0,0,0,0-.16C217.17,98.46,217,98.29,216.7,98.51Zm9.63-.84,0,0s0,0,0,0,0,0,0,0Z"
          transform="translate(-31 -62.07)" style="fill:#edbb29"/>
    <path d="M69.49,137.8c0-.14,0-.33-.16-.31s-.41,0-.46.28-.11.45-.36.37-.08-.33-.11-.51a10,10,0,0,0-.22-1.69,4.68,4.68,0,0,1-.05-2.07c.09-1-.1-1.89,0-2.84a22.8,22.8,0,0,0,.22-3.16c0-.77.67-1.06.58-1.74,0-.2.35-.42.66-.38s.52-.13.44-.49a2.88,2.88,0,0,1,0-1.79.28.28,0,0,0,0-.18c-.38-.67-.11-1.34,0-2a.37.37,0,0,0,0-.18c-.21-1.09.1-2.19,0-3.27a21,21,0,0,1,0-3.27,13.32,13.32,0,0,1,0-2.68c.17-.64-.12-1.22-.08-1.81s-.3-1.52-.08-2.08c.43-1.08-.33-2.16.25-3.16-.24-1.69.25-3.39-.06-5.07a5.91,5.91,0,0,1,.06-1.4,3.74,3.74,0,0,0-.07-1c-.13-.47,0-1-.07-1.48-.2-.85.09-1.75-.07-2.58a22.44,22.44,0,0,1,0-3.28c0-.72.56-1,1.25-1.23.88-.23,1.68.21,2.53.12a24.65,24.65,0,0,1,2.58,0c1.89,0,3.78,0,5.67,0,1.34,0,2.69,0,4,.1a11.44,11.44,0,0,0,3.19-.25,2.87,2.87,0,0,1,1.67.27,4.78,4.78,0,0,0,1.17.2c.44,0,.9-.19,1.32.13.06,0,.2,0,.29,0A3.69,3.69,0,0,1,95.28,89c.61.25,1.19-.1,1.77,0a12.87,12.87,0,0,1,3,.34A3.82,3.82,0,0,1,102.42,91c.29.66.85,1.21.79,2-.07,1,.31,2,.14,3.1-.11.7.11,1.45,0,2.11-.09.85.07,1.69,0,2.53a6.31,6.31,0,0,0,0,2.17,12.51,12.51,0,0,1,0,2,9.32,9.32,0,0,1-.22,2.83,1.55,1.55,0,0,0,.12.7,6.38,6.38,0,0,1-.13,1.95,3.89,3.89,0,0,0,.06,1.76,10.24,10.24,0,0,1,.22,2.59,12.86,12.86,0,0,1,0,1.86c0,1.84,0,3.68,0,5.52a4.06,4.06,0,0,1-.2,1.47.58.58,0,0,0-.05.36c.31.87-.19,1.76,0,2.59.41,1.62,0,3.24.18,4.87a4.49,4.49,0,0,1-.47,3.17,4,4,0,0,0-.31,1c-.29,1-1.12,1.41-1.75,2-.26.26-.56.17-.85.13a.51.51,0,0,0-.63.29.83.83,0,0,1-.78.47c-1.36-.13-2.68.23-4,.15-1.09,0-2.23.09-3.33,0-1.42-.06-2.82.17-4.23.12-1,0-2-.06-3-.12-.85-.05-1,.18-.87,1,0,.37.05.64-.42.67.09.28.76.19.36.7-.08.1.31.06.33.26s.21.49,0,.73c-.16,0-.18-.14-.21-.25s-.09-.19-.2-.13,0,.17,0,.26c.13.37.42.76.38,1.12-.08.67.16,1.29.09,2s.1,1.38.06,2c-.09,1.14.24,2.24.13,3.36a2.55,2.55,0,0,0,.1,1.13.69.69,0,0,1,0,.47,3.51,3.51,0,0,0,0,2.22,13.3,13.3,0,0,1-.13,2.27,11.76,11.76,0,0,0,0,1.19c0,.28.08.61-.36.68-.25,0-.08.19,0,.31a5,5,0,0,1,.24,2.63c-.08.35.25.63.19,1,0,.09,0,.21,0,.29-.32.86.15,1.73,0,2.54-.24,1.3.33,2.55.11,3.81-.11.69.11,1.59-.82,2a.6.6,0,0,0-.16.81c.07.15.23.27,0,.4s-.21-.21-.43-.21c-.08.48-.42.58-.86.62a5.38,5.38,0,0,0-1.63.25,2.09,2.09,0,0,1-1.27-.12,1.8,1.8,0,0,0-1-.07,18.9,18.9,0,0,1-2.11.07c-.8.1-1.54-.37-2.35,0a1.76,1.76,0,0,1-1.6-.27c-.26-.17-.27-.24,0-.37s.15-.36,0-.45a1.54,1.54,0,0,1-.76-1c0-.31,0-.31-.3-.18s-.56-.33-.5-.66a30.9,30.9,0,0,0,0-3.33,25.38,25.38,0,0,0,0-3.49c0-1,.36-2.09,0-3.12-.06-.15,0-.39.09-.58a2.1,2.1,0,0,0,0-1.24,2.46,2.46,0,0,1,.06-1.71.73.73,0,0,0,0-.41,14.28,14.28,0,0,1,0-4.28,2.89,2.89,0,0,0,0-.83c-.06-.31-.14-.58.17-.81a.35.35,0,0,0,.11-.32c-.3-1,.09-2.13-.15-3.21-.12-.51-.13-1.1-.24-1.66a4.41,4.41,0,0,1,.12-2,5.45,5.45,0,0,0-.15-1.77c0-.33-.17-.68,0-1s.34-.51.48,0c.08.26.27.24.42.17s.14-.28,0-.44-.14-.18-.13-.25c.11-.88-.56-1.15-1.15-1.47-.13-.06-.24-.12-.27-.27l.28,0,.06.07C69.56,137.89,69.55,137.84,69.49,137.8Zm11.24-16.07h0c.23.19-.27.3-.07.41.4.25.5.66.69,1A1.28,1.28,0,0,0,80.73,121.73Zm9.86.38a.47.47,0,0,0-.06.41c.14.43-.07.86,0,1.29a.29.29,0,0,1-.15.31c-.13.06-.21-.08-.2-.15,0-.46-.24-.82-.35-1.23-.25-.87.21-1.73,0-2.59-.06-.2.14-.4.35-.51s.17-.17.08-.37a2.77,2.77,0,0,1-.22-1.92,1.42,1.42,0,0,0,0-.68c-.13-.78-.13-1.58-.21-2.36s-.34-1.48.26-2.11a.26.26,0,0,0,0-.23,3.15,3.15,0,0,1-.32-2,28.38,28.38,0,0,0,0-3.69,9,9,0,0,0,0-2.07c-.11-.37-.07-1.08.15-1.22.59-.36.38-.7.21-1.11-.1-.25-.25-.45-.14-.77s-.56-.77-.79-.75-.66.92-1.1.11h-.06c-.68,0-1.36,0-2-.12a2.09,2.09,0,0,0-1.35.1.34.34,0,0,1-.33-.06c-.45-.4-.73,0-.8.28a10,10,0,0,1-.4,1.08c-.06.18-.14.41,0,.52.41.36.29.85.33,1.28a5.28,5.28,0,0,1,0,1.86,16.06,16.06,0,0,0-.13,1.81c0,.28-.21.66-.09.93.34.76,0,1.52.12,2.25a4.29,4.29,0,0,1-.08,2.33,9.38,9.38,0,0,1,.32,3.33c.15,2.23,0,4.48,0,6.72a.81.81,0,0,1-.39.81c-.23.12-.41.19-.51.53-.22.71-.17,1.11.52,1.35.3.11.36.24.26.53-.05.13-.09.43.11.36.64-.21,1.17.3,1.74.22a26.34,26.34,0,0,1,2.94-.17c.43,0,1-.47,1.39.15.11.17.27.51.6.21a.51.51,0,0,0,0-.79c-.15-.2-.36-.4-.33-.68s.09-.52.4-.49.53.11.35.49c0,.09-.11.29.07.28a1.71,1.71,0,0,0,.79-.19c.15-.1.11-.4,0-.61a1.67,1.67,0,0,1-.25-1.32c.14-.36-.13-.38-.33-.53a4.87,4.87,0,0,0,.6-.29.3.3,0,0,0,.12-.41c-.06-.11-.23-.24-.26-.17C91.11,122.67,90.88,122,90.59,122.11Zm-20-11.17c0,.13-.24.43.12.36a.63.63,0,0,0,.58-.7,3.18,3.18,0,0,1,.07-1.73c.08-.17.08-.36-.19-.39a.53.53,0,0,0-.64.66c0,.16.15.34,0,.44-.41.25-.24.49-.07.79A2.65,2.65,0,0,1,70.64,110.94Zm9.73,13.3c.17.09.14.42.28.36.47-.21.31.11.33.32a.42.42,0,0,0,.08.21c.29.42.85.62,1,1.17,0,.09.13.06.21,0s.17-.14.12-.16c-.5-.22-.18-.85-.59-1.13-.24-.16-.47-.37-.34-.75.06-.18-.08-.34-.28-.4s-.26,0-.3.23S80.55,124.25,80.37,124.24ZM72,147.38a1,1,0,0,1-.41-1.19c.13-.44-.27-.64-.44-.91s-.43,0-.62.16,0,.27.08.36a1,1,0,0,1,.29,1.18c0,.08,0,.16.14.17l.17-.38C71.45,147,71.44,147.33,72,147.38Zm12-19.51a2.87,2.87,0,0,1,1,.31c.27.1.44-.14.64-.22a.24.24,0,0,0,0-.36,1.84,1.84,0,0,0-1-.33C84.37,127.29,84.24,127.62,84,127.87Zm3.57,0c0-.28-.12-.44-.34-.4a.63.63,0,0,1-.59-.17.59.59,0,0,0-.67,0c-.16.09-.09.17-.06.29.09.33.36.28.59.29a.56.56,0,0,0,.34-.08A.48.48,0,0,1,87.59,127.88Zm-4.49-.25c-.64-.35-1.34-.29-1.93-.59C81.71,127.43,82.11,128.2,83.1,127.63ZM97.12,90a2.27,2.27,0,0,1,.41.35c.27.44.55.19.83,0,.11-.06.18-.25,0-.26C98,90.05,97.6,89.73,97.12,90ZM89.26,127.1a3.49,3.49,0,0,0-.7.79c-.15.17,0,.22.15.24C89.25,128.18,89.45,127.84,89.26,127.1ZM71.37,142.54c-.13-.17-.21-.47-.47-.64s-.25,0-.3.14-.17.33.05.4.61-.22.54.33A.2.2,0,0,0,71.37,142.54Zm.37,2.06c.14,0,.12.36.35.27.08,0,0-.13,0-.21,0-.25-.2-.25-.39-.23h-.4a1.44,1.44,0,0,0,.22.62C71.74,144.92,71.53,144.71,71.74,144.6Zm8.78,21c0-.43.3-.7-.08-.91-.17-.09-.29.11-.36.23C79.86,165.34,80.27,165.33,80.52,165.63ZM98.94,90.55a1.53,1.53,0,0,0,.78.56C99.72,90.56,99.54,90.3,98.94,90.55Zm-27.48-.74a.69.69,0,0,1-.44-.08c-.37-.08-.36.06-.14.27S71.27,90,71.46,89.81Zm.46,55.94h0v-.2Z"
          transform="translate(-31 -62.07)" style="fill:#edbb29"/>
    <path d="M145.12,89.92c.2.09.33-.09.49-.14s.49-.06.52.13c.05.44.29.53.66.55.1,0,.29.07.26.2s-.24.33-.47.37a1.27,1.27,0,0,0-1-.13c.1-.43-.25-.65-.45-.94,0,0,0,0,0,0Z"
          transform="translate(-31 -62.07)" style="fill:#edbb29"/>
    <path d="M135.82,89.62l-.54.2c-.15.05-.32.16-.45,0a.26.26,0,0,1,.06-.32c.15-.12.28-.33.51-.21a2.51,2.51,0,0,1,.41.32Z"
          transform="translate(-31 -62.07)" style="fill:#edbb29"/>
    <path d="M125.15,156.22l.08-.14c.1.12-.06.09-.08.14Z" transform="translate(-31 -62.07)" style="fill:#edbb29"/>
    <path d="M218.86,156.2c-.22,0-.48.13-.51-.19,0-.08.06-.24.1-.24C218.74,155.74,218.7,156.05,218.86,156.2Z"
          transform="translate(-31 -62.07)" style="fill:#edbb29"/>
    <path fill="#edbb29" d="M101.35,268.52h0a2.39,2.39,0,0,0-.2.43l-1,3.1-.18,1-.93-.2-.91.13-4.51.07h-.73l.31-.78,1.17-3,.85-2.15L98.43,259l.22-.56.63-1.6.42-1.09,1.94-4.94,1.06-2.68.65-1.66.13-.34c.74-2.35,1.84-2.29,3.28-2.28l4.19,0h.69l.62,1.24a3,3,0,0,1,.18.41l2.13,5.86a3.08,3.08,0,0,1,.16.54l.23,1.13a3.71,3.71,0,0,0,.29.87l1.62,3.4a2.72,2.72,0,0,1,.11.25l1,2.47,1.64,4.21a2.29,2.29,0,0,1,.08.28l.18.79a2,2,0,0,0,.1.32l2.88,6.92.17.42-1.19-.18a1.51,1.51,0,0,0-.3,0l-5.41.19-.33-.85-.28-1.32a2,2,0,0,0-.25-.62l-.48-.75a2,2,0,0,1-.17-.32L114,267.7h-.86l-1.14-.24a1.71,1.71,0,0,0-.78,0l-.56.16a1.61,1.61,0,0,1-.44.06h-7.43A1.73,1.73,0,0,0,101.35,268.52Zm6.26-17.44-.45.61-.25,1.36a1,1,0,0,1-.06.25l-2.24,6.77a.78.78,0,0,1,0,.14l-.57,1.38h.52l5.77-.23.92.23h.48l-1-2.5L108,252.14Z"
          transform="translate(-31 -62.07)"/>
    <path fill="#edbb29" d="M230.08,252.5H224c0-.16-.39-.6-.45-.75a2.45,2.45,0,0,0-1.12-1.57,4.59,4.59,0,0,0-1.6-.66,9.51,9.51,0,0,0-1.8.08c-2,0-3.38.26-4.07,1.27a3,3,0,0,0-.3.59,4.38,4.38,0,0,0-.41,1.22c0,.32.31.44.43.7a2.77,2.77,0,0,0,1.21,1.21,8.29,8.29,0,0,0,1.61.43c1.93.62,4.54,1.28,6.91,2,.51.16,1,.34,1.5.54l.79.35.77.41c.26.16.51.32.75.49a6.56,6.56,0,0,1,1.89,2.07,6.8,6.8,0,0,1,.47,1.06,7.05,7.05,0,0,1,.3,1.37c0,.32-.29.7-.29,1.05a9.87,9.87,0,0,1,.15,1.91,8.11,8.11,0,0,1-.45,1.42,7.37,7.37,0,0,1-2.2,2.86,9.08,9.08,0,0,1-1.06.74,18.61,18.61,0,0,1-1.82.71,9.35,9.35,0,0,1-1.78.65,22,22,0,0,1-4.59.58,15.67,15.67,0,0,1-3.89-.58c-.28-.06-.55-.14-.82-.22a11.89,11.89,0,0,1-1.42-.52c-.51-.23-.77-.8-1.21-1.08s-.93-.18-1.24-.45a8.22,8.22,0,0,1-.79-.77,8.07,8.07,0,0,1-.78-1.37,10.84,10.84,0,0,1-1.32-3,.61.61,0,0,1,.59-.76h1.4l.31.34.67-.34h1l1.47.23a.57.57,0,0,1,.46.41,2.87,2.87,0,0,0,1.25,1.51,5,5,0,0,0,.86.46c.32.14.59,0,1,.07s.63.4.92.45a13.72,13.72,0,0,0,1.88.12,9.71,9.71,0,0,0,1.36-.32c.38,0,.84.16,1.16.09a4.75,4.75,0,0,0,1.19-.42,2.42,2.42,0,0,0,1.57-2.26,2.64,2.64,0,0,0-.3-.87,2,2,0,0,0-.69-.74,5.32,5.32,0,0,0-1.22-.57q-.42-.15-.9-.27c-.26-.07-.4-.44-.68-.51-.5-.11-1.17.08-1.72,0l-.59-.12a22.22,22.22,0,0,1-6.07-2.06c-.32-.17-.88-.29-1.17-.49a8.05,8.05,0,0,1-1.3-1.1,8.32,8.32,0,0,1-.78-1.55,7.13,7.13,0,0,1-1.13-3.73,8.43,8.43,0,0,1,.12-1.45,6.83,6.83,0,0,1,.17-.81c.09-.31.48-.54.51-.86a2.33,2.33,0,0,1,.49-1.45l.69-.76a8.51,8.51,0,0,1,1.21-1.1c.47-.35,1-1.24,1.52-.93.36.21.56-.16.82-.37a4.46,4.46,0,0,1,1.76-.57q.57-.14,1.17-.24a18.57,18.57,0,0,1,2.95-.23c.6,0,1.18,0,1.73.08s1.12,0,1.51,0a9,9,0,0,1,5.82,3.61c.33.44.18.88.42,1.37A10.48,10.48,0,0,1,230.08,252.5Z"
          transform="translate(-31 -62.07)"/>
</svg>