<svg id="be30c5db-4825-40b8-8de7-f4808be2cec1" data-name="Layer 1" xmlns="http://www.w3.org/2000/svg"
     xmlns:xlink="http://www.w3.org/1999/xlink" viewBox="0 0 96.57 37.88">
    <defs>
        <linearGradient id="aa00dd14-7b45-44d0-a18e-390e0c871a39" x1="87.84" y1="20.54" x2="87.84" y2="50.69"
                        gradientUnits="userSpaceOnUse">
            <stop offset="0" stop-color="#e9bc35" stop-opacity="0"/>
            <stop offset="1" stop-color="#e9bc35"/>
        </linearGradient>
        <linearGradient id="a80454a3-c6cc-45cc-9611-f94a150cf764" x1="10.7" y1="20.54" x2="10.7" y2="50.69"
                        xlink:href="#aa00dd14-7b45-44d0-a18e-390e0c871a39"/>
        <linearGradient id="a1fcce7d-98ac-4064-a22e-dc8da0f96a65" x1="32.36" y1="20.54" x2="32.36" y2="50.69"
                        xlink:href="#aa00dd14-7b45-44d0-a18e-390e0c871a39"/>
        <linearGradient id="a4a6f72b-153b-4b25-9774-69fb9842dbd3" x1="22.22" y1="20.54" x2="22.22" y2="50.69"
                        xlink:href="#aa00dd14-7b45-44d0-a18e-390e0c871a39"/>
        <linearGradient id="aaa0146e-2629-4982-9cd1-57ee930773c1" x1="52.65" y1="20.54" x2="52.65" y2="50.69"
                        xlink:href="#aa00dd14-7b45-44d0-a18e-390e0c871a39"/>
        <linearGradient id="fbc6808f-ab38-4f60-bfb9-3c4e29173522" x1="42.35" y1="20.54" x2="42.35" y2="50.69"
                        xlink:href="#aa00dd14-7b45-44d0-a18e-390e0c871a39"/>
        <linearGradient id="e8e4c02a-2a13-45e2-bf2b-b0e3f2bf928e" x1="61.02" y1="20.54" x2="61.02" y2="50.69"
                        xlink:href="#aa00dd14-7b45-44d0-a18e-390e0c871a39"/>
        <linearGradient id="edb62979-3d65-4ede-bda7-2d5cabbcba52" x1="78.31" y1="20.54" x2="78.31" y2="50.69"
                        xlink:href="#aa00dd14-7b45-44d0-a18e-390e0c871a39"/>
    </defs>
    <title>yandex</title>
    <path d="M101.27,39.31c0-2.6,0-5.2,0-7.79,0-.42-.1-.58-.54-.57-1.25,0-2.5,0-3.75,0h0q0,5.94,0,11.9c0,.4-.09.62-.5.75L78.93,49.36l-.36.06-.08,0a.66.66,0,0,1-.43,0c0-.15.17-.15.26-.21l9.5-6.47c1.55-1,3.08-2.13,4.65-3.16a1,1,0,0,0,.48-.9c0-2.37,0-4.74,0-7.11,0-.24,0-1.16,0-1.4q0-6.51,0-13c0-.21.08-.44-.09-.68l-.34.26L80.49,26.31c-1.38,1.08-2.83,2.08-4.13,3.28a5.76,5.76,0,0,0-2,4.5c.06,4.93,0,9.87,0,14.8a2.62,2.62,0,0,0,2.89,2.89c7.75,0,15.51,0,23.26,0,.63,0,.73-.2.72-.76C101.26,47.13,101.27,43.22,101.27,39.31ZM87.68,29.43a1.3,1.3,0,0,1,1.7,1.37,3.35,3.35,0,0,1-2.49,3,1.33,1.33,0,0,1-1.66-1.45A3.42,3.42,0,0,1,87.68,29.43Z"
          transform="translate(-5.22 -16.06)"
          style="stroke:#e9bc35;stroke-linecap:round;stroke-linejoin:round;fill:url(#aa00dd14-7b45-44d0-a18e-390e0c871a39)"/>
    <path d="M15.67,40.29c0-3.28,0-6.55,0-9.83,0-.47-.11-.66-.61-.65-1,0-1.92,0-2.88,0a5.28,5.28,0,0,0-4,1.78,7,7,0,0,0-1.65,4.27C6.29,38.65,7,41,9.67,42.39c.26.14.3.24.15.5-.43.74-.84,1.5-1.25,2.25L5.9,50c-.11.19-.34.55,0,.61a6.41,6.41,0,0,0,2.31,0c.1,0,.17-.21.24-.34l.86-1.69c.9-1.74,1.81-3.48,2.68-5.24.33-.68.89-.34,1.34-.34s.2.42.2.65c0,1.84,0,3.68,0,5.52,0,1.53,0,1.51,1.55,1.53.49,0,.62-.14.61-.62C15.66,46.79,15.67,43.54,15.67,40.29ZM13,41.15c-2.44,0-3.74-1-4.12-3.49a7.57,7.57,0,0,1,.26-3.57,3.41,3.41,0,0,1,4.09-2.47c.36.06.28.29.28.49,0,1.46,0,2.91,0,4.36s0,2.77,0,4.16C13.53,41,13.4,41.14,13,41.15Z"
          transform="translate(-5.22 -16.06)"
          style="stroke:#e9bc35;stroke-linecap:round;stroke-linejoin:round;fill:url(#a80454a3-c6cc-45cc-9611-f94a150cf764)"/>
    <path d="M37.27,49.42c0-.27,0-.57-.39-.53-.64,0-.71-.32-.71-.84,0-3.59,0-7.17,0-10.75,0-.4,0-.59-.52-.58-1.64,0-3.27,0-4.91,0-.42,0-.52.14-.51.53A46.58,46.58,0,0,1,30,42.4a18.22,18.22,0,0,1-1.51,6c-.14.31-.28.58-.71.51s-.37.19-.37.46c0,.9,0,1.8,0,2.7,0,1.38,0,1.37,1.37,1.32.42,0,.6-.18.59-.59,0-.59,0-1.19,0-1.78,0-.26.06-.36.34-.36l5.46,0a1.65,1.65,0,0,1,.06.66c-.06.47,0,.93,0,1.4,0,.2-.09.59.18.63a4.63,4.63,0,0,0,1.74,0A37.51,37.51,0,0,0,37.27,49.42Zm-3.77-.53c-1,0-2,0-3,0-.28,0-.44,0-.25-.36,1.59-3,1.89-6.17,2-9.44,0-.45.09-.62.59-.61,1.16,0,1.16,0,1.16,1.19v4.05c0,1.56,0,3.11,0,4.66C34,48.77,33.92,48.9,33.5,48.89Z"
          transform="translate(-5.22 -16.06)"
          style="stroke:#e9bc35;stroke-linecap:round;stroke-linejoin:round;fill:url(#a1fcce7d-98ac-4064-a22e-dc8da0f96a65)"/>
    <path d="M26,38.33c0-1.62,0-1.61-1.6-1.61-.46,0-.59.15-.58.6,0,1.47,0,3,0,4.42,0,.36-.07.51-.47.49a20.18,20.18,0,0,0-2.2,0c-.45,0-.51-.16-.5-.54,0-1.14,0-2.29,0-3.43,0-1.55,0-1.54-1.59-1.54-.47,0-.58.15-.57.6,0,2.11,0,4.22,0,6.33v5.4c0,1.61,0,1.59,1.58,1.61.49,0,.58-.17.57-.6,0-1.85,0-3.69,0-5.53,0-.43.11-.56.54-.54a18.22,18.22,0,0,0,2.09,0c.42,0,.55.09.54.53,0,1.55,0,3.11,0,4.66s0,1.44,1.48,1.48c.59,0,.7-.19.7-.73C26,46.06,26,42.19,26,38.33Z"
          transform="translate(-5.22 -16.06)"
          style="stroke:#e9bc35;stroke-linecap:round;stroke-linejoin:round;fill:url(#a4a6f72b-153b-4b25-9774-69fb9842dbd3)"/>
    <path d="M53.13,43.53a1,1,0,0,1,0-1.06c1-1.75,1.92-3.51,2.89-5.26.19-.35.21-.51-.26-.48a8.08,8.08,0,0,1-1.1,0,1,1,0,0,0-1.14.71c-.75,1.63-1.54,3.24-2.32,4.86-.1.2-.15.45-.44.6,0-1.6,0-3.13,0-4.66s0-1.48-1.49-1.52c-.6,0-.69.2-.69.73,0,3.93,0,7.85,0,11.78,0,1.42,0,1.42,1.4,1.42.77,0,.77,0,.77-.81V43.72l.13,0c.86,1.76,1.71,3.52,2.57,5.27,1,2,.46,1.63,2.73,1.68.51,0,.61-.08.36-.56C55.41,47.91,54.29,45.71,53.13,43.53Z"
          transform="translate(-5.22 -16.06)"
          style="stroke:#e9bc35;stroke-linecap:round;stroke-linejoin:round;fill:url(#aaa0146e-2629-4982-9cd1-57ee930773c1)"/>
    <path d="M46.36,41.82a8,8,0,0,0-1.21-4.06,3,3,0,0,0-3.44-1.23,4.1,4.1,0,0,0-2.54,2.73,13.06,13.06,0,0,0-.5,7.79c1,4.13,4.28,4.66,7.18,3.19.31-.16.46-.33.36-.72-.22-.87-.2-.88-1.11-.68l-.24.06c-1.83.32-3.06-.21-3.72-1.62a7.3,7.3,0,0,1-.51-2.88c0-.29.11-.32.37-.31l5,.08c.35,0,.45-.1.44-.45C46.37,43.09,46.41,42.45,46.36,41.82Zm-2.52.59c-.41,0-2.21,0-2.69.08-.28,0-.44,0-.41-.32a9.83,9.83,0,0,1,.61-3c.24-.55.55-1,1.23-1s.92.53,1.13,1.06a9.15,9.15,0,0,1,.46,2.89C44.18,42.35,44.07,42.42,43.84,42.41Z"
          transform="translate(-5.22 -16.06)"
          style="stroke:#e9bc35;stroke-linecap:round;stroke-linejoin:round;fill:url(#fbc6808f-ab38-4f60-bfb9-3c4e29173522)"/>
    <path d="M63.82,48.86c-2.19.46-3.47-.28-4.07-2.44a11.31,11.31,0,0,1-.16-4.74,6.69,6.69,0,0,1,1-2.81,1.42,1.42,0,0,1,2.08-.47c.34.19.56.75,1,.57s.48-.68.73-1a3.37,3.37,0,0,0,.19-.32.34.34,0,0,0-.15-.51,4.79,4.79,0,0,0-3.3-.64,4.33,4.33,0,0,0-2.93,2.66,11.86,11.86,0,0,0-1,5.31,9.11,9.11,0,0,0,.5,3.25,4.44,4.44,0,0,0,6.64,2.66c.66-.35.72-.55.39-1.4C64.47,48.38,64.08,48.8,63.82,48.86Z"
          transform="translate(-5.22 -16.06)"
          style="stroke:#e9bc35;stroke-linecap:round;stroke-linejoin:round;fill:url(#e8e4c02a-2a13-45e2-bf2b-b0e3f2bf928e)"/>
    <path d="M78.32,49.3c-.09.06-.24.06-.26.21a.66.66,0,0,0,.43,0l.08,0A.25.25,0,0,1,78.32,49.3Z"
          transform="translate(-5.22 -16.06)"
          style="stroke:#e9bc35;stroke-linecap:round;stroke-linejoin:round;fill:url(#edb62979-3d65-4ede-bda7-2d5cabbcba52)"/>
</svg>