<svg id="fc59545a-7a3f-4a55-96f4-75f8db490460" data-name="Capa 1" xmlns="http://www.w3.org/2000/svg"
     viewBox="0 0 512 512">
    <title>rank-mark</title>
    <path fill="#ffc000"
          d="M437,75A256,256,0,0,0,75,437,256,256,0,0,0,437,75ZM256,482C131.38,482,30,380.62,30,256S131.38,30,256,30,482,131.38,482,256,380.62,482,256,482Z"/>
    <path fill='#ffc000'
          d="M357.09,173.86,224.63,306.32l-69.72-69.73a15,15,0,0,0-21.22,21.22L214,338.14a15,15,0,0,0,21.21,0L378.3,195.07a15,15,0,0,0-21.21-21.21Z"/>
</svg>